<?xml version="1.0" standalone="no"?>
<!DOCTYPE svg PUBLIC "-//W3C//DTD SVG 20010904//EN"
 "http://www.w3.org/TR/2001/REC-SVG-20010904/DTD/svg10.dtd">
<svg version="1.0" xmlns="http://www.w3.org/2000/svg"
 width="564.000000pt" height="657.000000pt" viewBox="0 0 564.000000 657.000000"
 preserveAspectRatio="xMidYMid meet">

<g transform="translate(0.000000,657.000000) scale(0.100000,-0.100000)"
fill="#000000" stroke="none">
<path d="M3947 5862 c-35 -20 -44 -29 -36 -38 13 -16 -18 -74 -39 -74 -9 0
-11 -7 -7 -21 6 -19 5 -20 -15 -9 -17 9 -25 9 -34 -1 -8 -9 -7 -11 6 -6 9 3
19 0 22 -9 4 -9 2 -12 -5 -8 -8 4 -8 1 -1 -12 10 -21 10 -80 -2 -105 -4 -9 1
-24 12 -37 11 -12 22 -40 26 -61 7 -44 23 -61 37 -40 5 8 9 11 9 6 0 -4 23 9
52 29 54 36 56 40 160 232 61 114 60 130 -13 156 -76 28 -117 27 -172 -2z"/>
<path d="M1899 5781 c-29 -23 -21 -35 13 -22 14 5 44 7 67 4 44 -6 56 8 22 27
-31 16 -76 12 -102 -9z"/>
<path d="M2774 5579 c-9 -15 4 -24 66 -44 71 -23 119 -47 159 -81 55 -46 45
-18 -13 37 -72 68 -193 118 -212 88z"/>
<path d="M1720 5553 c0 -11 7 -26 15 -33 25 -20 17 -33 -15 -26 -28 5 -30 4
-20 -14 5 -10 15 -22 20 -25 18 -11 10 -25 -15 -25 -28 0 -32 -12 -10 -30 8
-7 15 -21 15 -31 0 -29 19 -23 38 12 45 83 117 134 178 127 42 -5 43 4 4 32
-31 22 -69 23 -143 5 -20 -5 -33 -3 -47 10 -19 17 -20 17 -20 -2z"/>
<path d="M1884 5421 c-18 -11 -44 -35 -59 -55 -51 -68 -70 -190 -25 -166 26
14 26 14 40 -20 21 -51 93 -76 132 -46 36 27 62 107 62 186 -1 102 -12 120
-72 120 -29 0 -59 -8 -78 -19z m66 -76 c24 -29 -11 -88 -41 -69 -13 8 -11 58
3 72 16 16 23 15 38 -3z"/>
<path d="M2601 5309 c-51 -13 -141 -95 -141 -130 0 -20 3 -18 39 14 66 59 97
72 181 71 158 -1 282 -98 311 -245 l11 -58 27 17 c14 9 28 17 30 19 2 2 -4 12
-14 22 -17 19 -16 21 11 45 26 23 27 25 9 26 -11 0 -27 5 -35 10 -12 8 -11 13
8 33 33 35 29 51 -12 43 -31 -6 -40 -2 -91 43 -32 28 -82 59 -111 70 -65 25
-164 33 -223 20z"/>
<path d="M2645 5181 c-99 -45 -151 -169 -104 -251 7 -13 8 -13 9 1 0 19 33 35
38 19 2 -6 15 -24 28 -40 40 -47 105 -60 181 -35 16 5 23 2 28 -14 17 -54 95
61 95 140 -1 144 -146 239 -275 180z m87 -96 c10 -22 9 -29 -9 -46 -26 -26
-60 -18 -69 17 -13 52 56 77 78 29z"/>
<path d="M3400 5063 c1 -11 26 -43 34 -43 13 0 5 38 -10 44 -20 8 -24 8 -24
-1z"/>
<path d="M1685 5028 c-49 -17 -82 -56 -95 -110 -23 -96 8 -178 92 -238 36 -27
49 -30 111 -30 98 0 144 16 199 71 93 93 83 191 -27 266 -67 46 -207 66 -280
41z"/>
<path d="M3474 4945 c-7 -18 -35 -20 -52 -3 -21 21 -13 -7 13 -46 14 -20 25
-40 25 -44 0 -4 13 -23 30 -42 16 -19 29 -38 30 -42 0 -14 -27 -9 -40 7 -7 8
-17 15 -23 15 -5 0 -3 -8 6 -18 26 -29 22 -45 -10 -37 -28 6 -28 6 -8 -12 11
-11 33 -34 48 -53 23 -27 36 -34 63 -33 36 1 42 -5 22 -25 -9 -9 -7 -17 10
-35 12 -13 19 -26 16 -30 -7 -6 26 -17 64 -20 12 0 22 -5 22 -9 0 -5 11 -14
25 -20 14 -6 24 -17 21 -24 -3 -7 4 -14 15 -16 26 -4 27 -20 3 -33 -11 -5 -44
-24 -75 -42 -45 -26 -62 -31 -92 -26 -24 4 -37 2 -37 -6 0 -6 5 -11 10 -11 6
0 10 -7 10 -15 0 -8 -8 -15 -17 -15 -13 0 -14 -3 -5 -12 18 -18 15 -28 -10
-28 -19 0 -18 -4 16 -35 21 -19 43 -35 48 -35 5 0 8 -6 7 -12 -3 -28 2 -38 21
-38 10 0 24 -9 30 -20 6 -12 21 -20 35 -20 29 0 32 -8 8 -26 -11 -8 -44 -13
-80 -14 -45 0 -62 -4 -60 -12 1 -9 -13 -14 -40 -16 -47 -3 -55 -15 -21 -33 20
-11 20 -12 4 -21 -10 -6 -28 -8 -42 -5 -13 2 -25 0 -27 -6 -5 -16 -72 -34 -95
-26 -15 6 -24 4 -29 -6 -7 -11 -21 -12 -67 -6 -61 8 -96 5 -96 -9 0 -4 -11
-11 -25 -14 -17 -4 -25 -12 -23 -24 3 -14 -7 -17 -59 -20 -38 -2 -66 -8 -73
-17 -7 -9 -29 -15 -51 -15 -22 0 -39 -4 -39 -8 0 -11 164 -44 182 -37 26 10
196 27 348 35 161 8 239 23 287 56 l28 19 -32 3 c-42 4 -43 27 -2 41 17 6 64
31 105 56 41 25 81 45 89 45 8 0 15 3 15 8 0 4 18 16 40 26 22 11 37 23 33 27
-5 4 -38 16 -75 28 -73 22 -128 47 -128 59 1 10 26 42 34 42 3 0 6 -9 6 -20 0
-21 10 -26 25 -12 6 5 37 14 70 21 33 7 70 19 83 27 l23 15 -33 61 c-18 33
-55 85 -83 114 -27 29 -55 61 -61 71 -6 9 -19 21 -29 27 -28 16 -45 33 -45 45
0 6 -5 11 -10 11 -6 0 -15 20 -22 45 -10 36 -17 45 -34 45 -26 0 -41 48 -17
57 15 6 17 4 -52 77 -27 29 -39 36 -47 28 -21 -21 -31 -13 -24 19 5 25 2 32
-14 36 -11 3 -20 10 -20 15 0 5 -4 6 -10 3 -5 -3 -10 3 -10 14 0 24 -18 28
-26 6z m56 -83 c0 -15 -2 -15 -10 -2 -13 20 -13 33 0 25 6 -3 10 -14 10 -23z
m100 -78 c0 -8 -4 -14 -10 -14 -5 0 -10 4 -10 9 0 5 -3 18 -7 28 -6 16 -5 16
10 4 9 -7 17 -20 17 -27z m24 -39 c-6 -16 -24 -21 -24 -7 0 11 11 22 21 22 5
0 6 -7 3 -15z"/>
<path d="M2020 4634 c0 -17 22 -14 28 4 2 7 -3 12 -12 12 -9 0 -16 -7 -16 -16z"/>
<path d="M2140 4600 c0 -5 5 -10 10 -10 6 0 10 5 10 10 0 6 -4 10 -10 10 -5 0
-10 -4 -10 -10z"/>
<path d="M2044 4529 c-10 -17 13 -36 27 -22 12 12 4 33 -11 33 -5 0 -12 -5
-16 -11z"/>
<path d="M2607 4422 c-21 -23 -21 -32 -3 -32 7 0 29 -13 47 -30 19 -16 37 -30
41 -30 13 0 20 42 9 53 -6 6 -11 19 -11 29 0 11 -5 15 -14 12 -8 -3 -17 -1
-21 5 -10 16 -30 13 -48 -7z"/>
<path d="M1785 4280 c3 -5 11 -10 16 -10 6 0 7 5 4 10 -3 6 -11 10 -16 10 -6
0 -7 -4 -4 -10z"/>
<path d="M1836 4237 c11 -29 68 -52 119 -48 55 3 99 20 55 21 -14 0 -58 9 -98
20 -85 24 -83 23 -76 7z"/>
<path d="M1740 4010 c0 -11 -4 -20 -10 -20 -13 0 -1 -59 18 -88 8 -12 12 -25
9 -29 -4 -3 2 -18 12 -32 9 -14 23 -41 30 -58 13 -32 15 -33 72 -33 53 0 59 2
59 20 0 11 11 47 25 80 14 33 25 61 25 64 0 2 -16 7 -35 10 -45 9 -122 49
-156 82 -31 29 -49 31 -49 4z"/>
<path d="M2000 3903 c1 -18 18 -33 32 -28 14 5 13 -3 -2 -67 -19 -79 -15 -93
28 -109 12 -5 29 -22 35 -39 l13 -29 10 28 c9 22 21 30 57 39 25 7 49 16 52
22 3 5 16 10 28 10 11 0 34 12 49 27 20 19 44 29 81 35 111 16 128 21 124 32
-2 6 -17 12 -33 14 -16 1 -113 18 -216 37 -183 34 -258 42 -258 28z"/>
<path d="M1765 3666 c-16 -18 -35 -35 -41 -37 -6 -2 -14 -26 -16 -53 -4 -30
-2 -43 3 -35 6 9 9 10 9 2 0 -6 -5 -15 -11 -19 -6 -3 -9 -15 -6 -25 3 -10 1
-22 -4 -25 -8 -5 -4 -41 7 -53 1 -2 15 6 30 18 19 15 22 21 10 21 -23 0 -20
27 4 35 11 4 17 11 14 17 -4 7 -2 8 4 4 6 -4 23 1 37 10 21 14 23 19 13 31
-10 12 -9 18 5 28 9 7 17 16 17 21 1 5 13 23 28 40 23 26 32 31 60 27 20 -4
32 -11 33 -22 0 -10 2 -11 6 -3 2 6 12 12 20 12 11 0 14 -8 11 -29 -2 -17 -1
-28 3 -25 5 2 12 -3 17 -13 12 -24 -8 -71 -28 -66 -13 4 -13 3 -1 -5 12 -9 10
-17 -13 -50 -21 -31 -32 -39 -49 -34 -20 5 -20 4 -8 -11 17 -21 7 -35 -58 -78
-25 -17 -50 -38 -54 -45 -11 -19 -52 12 -84 64 -31 51 -29 30 4 -29 34 -63 58
-70 117 -35 57 33 126 117 166 202 27 58 30 70 20 95 -7 15 -11 29 -9 31 1 2
-3 13 -9 24 -14 26 -79 44 -159 43 -53 0 -61 -3 -88 -33z m82 -21 c-14 -29
-20 -31 -38 -8 -12 15 -12 16 3 10 9 -3 22 1 28 9 18 21 20 17 7 -11z m-47
-24 c0 -12 -20 -25 -27 -18 -7 7 6 27 18 27 5 0 9 -4 9 -9z m4 -21 c9 7 19 11
22 8 8 -9 -46 -39 -57 -32 -13 8 -8 -28 6 -39 6 -4 1 -7 -10 -5 -11 2 -20 -2
-20 -9 0 -6 -3 -14 -6 -18 -11 -10 -5 79 6 91 7 8 15 8 27 1 12 -8 21 -7 32 3z"/>
<path d="M1910 3630 c0 -26 2 -29 14 -18 8 7 10 14 6 16 -5 2 -6 10 -3 18 3 8
0 14 -6 14 -6 0 -11 -14 -11 -30z"/>
<path d="M1632 3628 c-13 -26 -22 -39 -74 -116 -21 -31 -38 -62 -38 -69 0 -8
-8 -13 -17 -11 -11 2 -26 -14 -45 -52 -16 -30 -36 -65 -44 -77 -8 -12 -14 -29
-14 -37 0 -8 -11 -27 -25 -42 -50 -54 -44 -155 19 -310 20 -49 43 -126 50
-171 8 -45 29 -133 45 -195 17 -62 37 -138 44 -168 l13 -55 660 -2 659 -3 18
36 c9 19 17 44 17 54 0 11 3 20 8 20 10 0 32 50 32 72 0 29 29 90 39 84 5 -4
12 3 16 14 9 30 26 13 19 -18 -4 -15 -26 -65 -50 -112 -23 -47 -44 -98 -46
-115 l-3 -30 98 0 c54 -1 101 3 104 8 3 4 -1 8 -8 6 -43 -5 -48 0 -33 31 9 16
13 34 10 39 -7 11 -46 2 -46 -11 0 -5 5 -6 12 -2 8 5 9 2 5 -10 -4 -10 -7 -24
-7 -32 0 -8 -6 -11 -15 -8 -12 5 -13 10 -4 20 15 18 7 18 -36 -3 -35 -17 -64
-10 -32 8 28 16 89 119 109 184 32 107 22 175 -36 228 -40 36 -81 47 -193 54
-105 6 -244 -20 -323 -61 -122 -62 -234 -134 -294 -186 -18 -16 -37 -26 -41
-22 -5 4 -5 2 -1 -5 3 -6 2 -14 -4 -18 -11 -7 -11 -8 -13 63 -1 28 2 52 7 52
5 0 1 9 -9 20 -18 19 -17 21 30 62 27 24 64 54 84 67 20 14 38 27 41 30 3 4
22 17 42 31 21 14 38 28 38 33 0 4 7 7 15 7 8 0 15 5 15 10 0 6 8 10 17 10 14
0 14 3 5 12 -10 10 -15 10 -21 -1 -5 -7 -14 -10 -20 -7 -6 4 -11 1 -11 -8 0
-20 -86 -14 -108 8 -15 15 -15 18 -2 26 11 7 12 10 2 10 -8 0 -27 14 -43 31
-24 26 -32 29 -44 19 -9 -7 -18 -10 -22 -6 -10 10 29 34 47 29 8 -3 2 8 -15
24 -16 15 -39 39 -50 51 l-20 24 28 -13 c15 -7 27 -16 27 -21 0 -4 6 -8 13 -8
22 0 13 38 -16 68 -15 15 -27 31 -27 35 0 13 21 7 42 -13 12 -11 24 -17 27
-14 3 3 1 8 -5 12 -6 4 -17 18 -24 31 -10 19 -10 22 2 15 17 -11 36 -15 72
-15 38 0 44 8 18 27 -12 8 -31 32 -41 52 -11 20 -31 48 -45 61 -14 13 -37 54
-51 90 -14 36 -29 72 -34 80 -10 15 -13 7 -26 -59 -17 -84 -95 -187 -187 -246
-37 -24 -74 -33 -64 -15 10 15 -21 20 -59 10 -32 -9 -39 -7 -74 20 -74 59
-104 188 -78 334 13 78 10 96 -11 55z m559 -468 c5 0 9 -7 9 -15 0 -22 -17
-18 -34 7 -21 29 -21 44 0 24 8 -9 20 -16 25 -16z m-356 -103 c-14 -59 -25
-121 -26 -139 0 -18 -3 -27 -6 -19 -13 32 37 284 53 268 2 -2 -7 -52 -21 -110z
m308 12 c17 -18 23 -27 12 -21 -29 17 -55 38 -55 46 0 12 10 6 43 -25z m27 10
c0 -6 -4 -7 -10 -4 -5 3 -10 11 -10 16 0 6 5 7 10 4 6 -3 10 -11 10 -16z m35
-19 c3 -5 -1 -10 -9 -10 -9 0 -16 5 -16 10 0 6 4 10 9 10 6 0 13 -4 16 -10z
m-65 -30 c0 -5 -5 -10 -11 -10 -5 0 -7 5 -4 10 3 6 8 10 11 10 2 0 4 -4 4 -10z
m110 -50 c16 -16 17 -20 5 -20 -8 0 -15 5 -15 10 0 6 -7 10 -15 10 -8 0 -15 5
-15 10 0 16 18 12 40 -10z m-95 -310 c0 -7 -6 -14 -13 -16 -7 -1 -8 0 -2 3 7
3 7 10 -2 21 -11 13 -11 14 2 10 8 -2 15 -11 15 -18z m-32 -45 c-7 -21 -13
-19 -13 6 0 11 4 18 10 14 5 -3 7 -12 3 -20z m37 -12 c0 -25 -1 -26 -16 -11
-9 9 -13 21 -10 27 13 20 26 11 26 -16z m4 -78 c3 -8 1 -15 -4 -15 -6 0 -10 7
-10 15 0 8 2 15 4 15 2 0 6 -7 10 -15z m-32 -77 c-10 -22 -11 -21 -9 9 1 21 5
29 11 23 6 -6 5 -18 -2 -32z"/>
<path d="M3760 3550 c0 -11 -15 -34 -34 -50 -18 -17 -51 -56 -71 -87 -21 -32
-47 -71 -57 -86 -41 -60 -120 -228 -125 -265 -4 -30 4 -61 32 -133 45 -114
234 -478 299 -576 l25 -38 535 3 534 2 20 63 c13 42 18 81 16 122 -8 117 -6
151 10 249 19 119 20 166 3 189 -11 16 -16 15 -67 -18 -30 -19 -61 -47 -68
-61 -12 -23 -65 -78 -116 -121 -8 -7 -26 -13 -39 -13 -14 0 -30 -7 -37 -15 -7
-8 -18 -15 -25 -15 -6 0 -20 -9 -30 -20 -10 -11 -26 -20 -37 -20 -10 0 -18 -4
-18 -8 0 -9 -59 -32 -84 -32 -9 0 -30 22 -48 51 l-32 51 -14 -39 c-11 -33 -19
-65 -21 -96 -1 -5 -5 -6 -10 -2 -5 3 -15 -12 -22 -32 -14 -45 -56 -103 -74
-103 -7 0 -15 -7 -18 -15 -9 -22 -87 -75 -111 -75 -14 0 -29 12 -40 32 l-19
31 25 21 c14 12 44 37 67 56 23 19 47 44 54 56 33 60 123 200 139 216 19 19
17 22 -59 169 -43 82 -81 149 -85 149 -17 0 -6 -37 22 -80 16 -25 30 -52 30
-61 0 -9 7 -22 15 -29 8 -7 15 -20 15 -29 0 -9 7 -28 14 -43 8 -15 11 -30 6
-33 -4 -3 -6 -23 -3 -46 5 -35 3 -41 -16 -46 -23 -6 -29 -23 -8 -24 6 0 2 -4
-10 -9 -13 -5 -23 -17 -23 -26 0 -9 -9 -27 -20 -41 -11 -14 -20 -22 -20 -18 0
5 -9 0 -20 -10 -11 -10 -17 -22 -13 -28 4 -7 0 -8 -12 -3 -11 4 -22 2 -27 -6
-5 -9 -8 -3 -8 15 0 15 -8 40 -17 55 -20 32 -75 87 -85 84 -4 -1 -10 7 -13 18
-8 24 -38 34 -64 21 -35 -19 -57 -13 -74 23 l-16 34 45 37 c25 21 43 40 39 43
-3 3 -21 7 -40 8 -26 2 -33 0 -28 -11 8 -22 -4 -18 -38 13 -43 37 -79 120 -79
182 0 38 -4 50 -15 50 -8 0 -15 4 -15 9 0 5 -13 14 -30 21 -31 13 -37 24 -19
36 8 5 8 9 -1 14 -10 6 -8 20 5 61 10 30 24 61 31 70 8 8 14 23 14 32 0 9 4
17 9 17 5 0 11 10 15 23 5 23 27 54 62 93 18 19 27 21 55 15 78 -18 149 -77
149 -125 0 -7 23 -58 51 -112 36 -70 48 -105 44 -123 -5 -21 -4 -22 9 -8 9 8
21 17 27 19 6 2 1 23 -15 53 -14 28 -48 98 -75 156 -55 116 -64 125 -174 167
-72 27 -77 27 -77 2z"/>
<path d="M1900 3521 c0 -17 30 -25 43 -12 8 8 8 11 0 11 -6 0 -18 3 -27 6 -9
3 -16 1 -16 -5z"/>
<path d="M3138 3473 c-15 -10 -30 -24 -33 -32 -5 -11 -3 -12 10 -1 9 7 28 13
43 14 16 1 27 7 27 15 0 21 -17 22 -47 4z"/>
<path d="M1941 3464 c0 -11 3 -14 6 -6 3 7 2 16 -1 19 -3 4 -6 -2 -5 -13z"/>
<path d="M3010 3435 c-11 -13 -6 -15 36 -15 49 0 51 12 3 24 -18 4 -31 1 -39
-9z"/>
<path d="M2900 3410 c0 -5 15 -10 33 -10 24 0 28 3 17 10 -20 13 -50 13 -50 0z"/>
<path d="M2720 3381 c0 -13 26 -21 63 -21 l32 1 -34 14 c-38 17 -61 19 -61 6z"/>
<path d="M1800 3350 c0 -5 5 -10 10 -10 6 0 10 5 10 10 0 6 -4 10 -10 10 -5 0
-10 -4 -10 -10z"/>
<path d="M2658 3343 c7 -3 16 -2 19 1 4 3 -2 6 -13 5 -11 0 -14 -3 -6 -6z"/>
<path d="M3265 3312 c-3 -8 2 -38 12 -68 15 -48 23 -57 77 -92 88 -56 94 -59
74 -36 -11 13 -14 24 -8 34 5 8 4 22 -2 34 -6 11 -12 37 -14 58 -3 43 -17 61
-59 73 -47 14 -74 13 -80 -3z"/>
<path d="M2545 3310 c-3 -5 -1 -10 4 -10 6 0 11 5 11 10 0 6 -2 10 -4 10 -3 0
-8 -4 -11 -10z"/>
<path d="M2425 3286 c-38 -10 -95 -46 -95 -60 0 -14 49 -4 70 14 13 11 30 20
39 20 9 1 34 9 56 20 l40 19 -35 -1 c-19 0 -53 -6 -75 -12z"/>
<path d="M2385 3210 c-3 -5 -1 -10 4 -10 6 0 11 5 11 10 0 6 -2 10 -4 10 -3 0
-8 -4 -11 -10z"/>
<path d="M2247 3109 c7 -7 15 -10 18 -7 3 3 -2 9 -12 12 -14 6 -15 5 -6 -5z"/>
<path d="M2230 3081 c0 -5 5 -13 10 -16 6 -3 10 -2 10 4 0 5 -4 13 -10 16 -5
3 -10 2 -10 -4z"/>
<path d="M3336 3061 c-9 -13 24 -71 40 -71 19 0 18 3 -10 45 -14 19 -27 31
-30 26z"/>
<path d="M2260 3056 c0 -2 7 -7 16 -10 8 -3 12 -2 9 4 -6 10 -25 14 -25 6z"/>
<path d="M2240 3031 c0 -5 7 -11 15 -15 9 -3 15 0 15 9 0 8 -7 15 -15 15 -8 0
-15 -4 -15 -9z"/>
<path d="M2300 2986 c0 -2 7 -7 16 -10 8 -3 12 -2 9 4 -6 10 -25 14 -25 6z"/>
<path d="M3311 2945 c-1 -27 -8 -79 -16 -115 -15 -72 -13 -90 4 -37 20 59 30
144 21 174 -7 25 -8 22 -9 -22z"/>
<path d="M3357 2917 c8 -74 -17 -160 -82 -284 -45 -85 -55 -115 -55 -154 0
-50 15 -136 28 -155 10 -16 144 12 155 32 4 8 15 14 22 14 8 0 15 4 15 9 0 5
10 7 22 3 18 -4 20 -2 15 19 -4 13 -7 33 -7 44 0 18 -3 17 -23 -8 l-22 -28
-27 26 c-15 14 -34 47 -42 74 -13 45 -13 57 5 138 11 48 24 104 30 123 5 19
11 44 13 55 13 84 39 99 57 33 6 -24 20 -60 30 -80 11 -21 16 -38 12 -38 -5 0
-3 -4 3 -8 6 -4 18 -29 27 -55 15 -45 15 -49 -3 -80 -13 -22 -16 -37 -10 -47
16 -26 11 -40 -15 -40 -26 0 -33 -18 -14 -37 22 -22 48 -116 38 -135 -8 -15
-6 -18 11 -18 11 0 23 8 26 18 27 82 39 101 60 96 l21 -5 -20 65 c-21 65 -37
85 -37 46 0 -11 -4 -20 -10 -20 -11 0 -11 2 -14 95 -2 43 -13 85 -40 150 -21
50 -43 103 -49 119 -12 31 -80 86 -108 86 -15 0 -17 -7 -12 -53z m46 -29 c-3
-16 -10 -28 -15 -28 -6 0 -8 9 -5 20 3 11 0 20 -6 21 -7 0 -3 4 8 8 25 10 24
11 18 -21z m164 -470 c-3 -8 -6 -5 -6 6 -1 11 2 17 5 13 3 -3 4 -12 1 -19z"/>
<path d="M2310 2951 c0 -6 5 -13 10 -16 6 -3 10 1 10 9 0 9 -4 16 -10 16 -5 0
-10 -4 -10 -9z"/>
<path d="M3921 2933 c-7 -8 -10 -17 -7 -20 9 -9 29 13 25 25 -2 6 -10 3 -18
-5z"/>
<path d="M3241 2686 c-6 -16 -10 -31 -7 -33 7 -8 28 37 23 50 -3 7 -10 -1 -16
-17z"/>
<path d="M4185 2699 c-4 -6 -4 -13 -1 -16 3 -4 6 -1 6 6 0 7 5 9 10 6 6 -3 10
-1 10 4 0 14 -17 14 -25 0z"/>
<path d="M3195 2669 c-4 -6 -5 -12 -2 -15 2 -3 7 2 10 11 7 17 1 20 -8 4z"/>
<path d="M3201 2608 c-1 -37 -11 -58 -26 -58 -16 0 -45 -61 -44 -92 1 -15 4
-9 10 17 16 68 26 60 29 -22 2 -43 3 -88 4 -100 1 -12 9 -24 19 -27 17 -4 18
0 10 62 -11 89 -8 138 10 189 8 24 11 40 7 38 -5 -3 -11 1 -13 7 -3 7 -6 1 -6
-14z"/>
<path d="M2190 2610 c0 -5 4 -10 9 -10 6 0 13 5 16 10 3 6 -1 10 -9 10 -9 0
-16 -4 -16 -10z"/>
<path d="M3170 2580 c0 -5 5 -10 11 -10 5 0 7 5 4 10 -3 6 -8 10 -11 10 -2 0
-4 -4 -4 -10z"/>
<path d="M3676 2415 c4 -11 10 -38 13 -60 5 -33 10 -39 26 -37 11 2 21 5 23 7
5 5 -15 41 -31 57 -7 7 -19 22 -26 33 l-13 20 8 -20z"/>
<path d="M3442 2340 c0 -14 2 -19 5 -12 2 6 2 18 0 25 -3 6 -5 1 -5 -13z"/>
<path d="M3138 2333 c7 -3 16 -2 19 1 4 3 -2 6 -13 5 -11 0 -14 -3 -6 -6z"/>
<path d="M683 2313 c9 -2 23 -2 30 0 6 3 -1 5 -18 5 -16 0 -22 -2 -12 -5z"/>
<path d="M1816 2157 c3 -10 9 -15 12 -12 3 3 0 11 -7 18 -10 9 -11 8 -5 -6z"/>
<path d="M3908 2163 c7 -3 16 -2 19 1 4 3 -2 6 -13 5 -11 0 -14 -3 -6 -6z"/>
<path d="M4453 2135 c0 -22 2 -30 4 -17 2 12 2 30 0 40 -3 9 -5 -1 -4 -23z"/>
<path d="M1174 1945 c0 -115 2 -161 3 -102 2 59 2 154 0 210 -1 56 -3 8 -3
-108z"/>
<path d="M3001 2148 c2 -2 22 -19 44 -38 l40 -35 -34 38 c-19 20 -39 37 -45
37 -5 0 -7 -1 -5 -2z"/>
<path d="M3590 2139 c0 -5 5 -7 10 -4 6 3 10 8 10 11 0 2 -4 4 -10 4 -5 0 -10
-5 -10 -11z"/>
<path d="M3930 2078 c-3 -37 -1 -63 3 -59 4 4 7 35 5 67 l-3 59 -5 -67z"/>
<path d="M1582 2105 c0 -16 2 -22 5 -12 2 9 2 23 0 30 -3 6 -5 -1 -5 -18z"/>
<path d="M2131 2114 c0 -11 3 -14 6 -6 3 7 2 16 -1 19 -3 4 -6 -2 -5 -13z"/>
<path d="M2151 2114 c0 -11 3 -14 6 -6 3 7 2 16 -1 19 -3 4 -6 -2 -5 -13z"/>
<path d="M3555 2110 c-10 -11 -16 -22 -14 -24 2 -2 12 7 22 20 22 29 17 32 -8
4z"/>
<path d="M1926 2103 c-6 -14 -5 -15 5 -6 7 7 10 15 7 18 -3 3 -9 -2 -12 -12z"/>
<path d="M2594 1935 c0 -104 2 -146 3 -92 2 54 2 139 0 190 -1 51 -3 7 -3 -98z"/>
<path d="M4450 2065 c0 -14 4 -25 9 -25 4 0 6 11 3 25 -2 14 -6 25 -8 25 -2 0
-4 -11 -4 -25z"/>
<path d="M2151 2064 c0 -11 3 -14 6 -6 3 7 2 16 -1 19 -3 4 -6 -2 -5 -13z"/>
<path d="M3531 2044 c0 -11 3 -14 6 -6 3 7 2 16 -1 19 -3 4 -6 -2 -5 -13z"/>
<path d="M2790 2040 c8 -5 20 -10 25 -10 6 0 3 5 -5 10 -8 5 -19 10 -25 10 -5
0 -3 -5 5 -10z"/>
<path d="M2838 2043 c7 -3 16 -2 19 1 4 3 -2 6 -13 5 -11 0 -14 -3 -6 -6z"/>
<path d="M3783 2043 c9 -2 23 -2 30 0 6 3 -1 5 -18 5 -16 0 -22 -2 -12 -5z"/>
<path d="M1538 2033 c7 -3 16 -2 19 1 4 3 -2 6 -13 5 -11 0 -14 -3 -6 -6z"/>
<path d="M2331 2024 c0 -11 3 -14 6 -6 3 7 2 16 -1 19 -3 4 -6 -2 -5 -13z"/>
<path d="M3868 2033 c6 -2 18 -2 25 0 6 3 1 5 -13 5 -14 0 -19 -2 -12 -5z"/>
<path d="M2094 1998 c0 -10 1 -18 3 -18 1 0 7 8 12 18 7 13 6 19 -2 19 -7 0
-13 -9 -13 -19z"/>
<path d="M4038 2013 l63 -4 -2 -130 c0 -72 2 -133 5 -136 3 -4 6 57 6 135 l0
142 -67 -2 -68 -2 63 -3z"/>
<path d="M4304 1890 c0 -74 1 -105 3 -67 2 37 2 97 0 135 -2 37 -3 6 -3 -68z"/>
<path d="M4348 2013 c17 -2 47 -2 65 0 17 2 3 4 -33 4 -36 0 -50 -2 -32 -4z"/>
<path d="M1851 1994 c0 -11 3 -14 6 -6 3 7 2 16 -1 19 -3 4 -6 -2 -5 -13z"/>
<path d="M3758 2003 c6 -2 18 -2 25 0 6 3 1 5 -13 5 -14 0 -19 -2 -12 -5z"/>
<path d="M1403 1993 c26 -2 68 -2 95 0 26 2 4 3 -48 3 -52 0 -74 -1 -47 -3z"/>
<path d="M2408 1993 c23 -2 59 -2 80 0 20 2 1 4 -43 4 -44 0 -61 -2 -37 -4z"/>
<path d="M3318 1993 c23 -2 61 -2 85 0 23 2 4 4 -43 4 -47 0 -66 -2 -42 -4z"/>
<path d="M2154 1880 c0 -63 1 -89 3 -57 2 31 2 83 0 115 -2 31 -3 5 -3 -58z"/>
<path d="M3047 1965 c-4 -8 -21 -24 -39 -35 -18 -11 -29 -20 -25 -20 28 0 87
53 73 67 -2 2 -6 -3 -9 -12z"/>
<path d="M3504 1966 c-3 -8 -4 -23 -2 -33 3 -11 6 -6 9 15 6 34 2 42 -7 18z"/>
<path d="M1573 1930 c0 -25 2 -35 4 -22 2 12 2 32 0 45 -2 12 -4 2 -4 -23z"/>
<path d="M3890 1966 c0 -2 7 -7 16 -10 8 -3 12 -2 9 4 -6 10 -25 14 -25 6z"/>
<path d="M1876 1933 c-6 -14 -5 -15 5 -6 7 7 10 15 7 18 -3 3 -9 -2 -12 -12z"/>
<path d="M3520 1932 c0 -11 27 -42 37 -42 3 0 -2 10 -13 23 -10 12 -20 24 -21
26 -2 2 -3 -1 -3 -7z"/>
<path d="M2056 1915 c-9 -26 -7 -32 5 -12 6 10 9 21 6 23 -2 3 -7 -2 -11 -11z"/>
<path d="M3021 1893 c7 -12 15 -20 18 -17 3 2 -3 12 -13 22 -17 16 -18 16 -5
-5z"/>
<path d="M2040 1873 c0 -6 8 -17 18 -24 16 -13 16 -13 2 6 -8 11 -16 22 -17
24 -2 2 -3 0 -3 -6z"/>
<path d="M3963 1861 c0 -11 5 -18 9 -15 4 3 5 11 1 19 -7 21 -12 19 -10 -4z"/>
<path d="M2333 1855 c-3 -9 -3 -19 1 -22 3 -4 6 1 6 10 0 8 6 18 13 20 9 4 9
6 -1 6 -7 1 -15 -6 -19 -14z"/>
<path d="M3668 1863 c7 -3 16 -2 19 1 4 3 -2 6 -13 5 -11 0 -14 -3 -6 -6z"/>
<path d="M2818 1843 c7 -3 16 -2 19 1 4 3 -2 6 -13 5 -11 0 -14 -3 -6 -6z"/>
<path d="M2850 1835 c0 -5 5 -17 10 -25 5 -8 10 -10 10 -5 0 6 -5 17 -10 25
-5 8 -10 11 -10 5z"/>
<path d="M3748 1833 c7 -3 16 -2 19 1 4 3 -2 6 -13 5 -11 0 -14 -3 -6 -6z"/>
<path d="M1533 1823 c9 -2 23 -2 30 0 6 3 -1 5 -18 5 -16 0 -22 -2 -12 -5z"/>
<path d="M3453 1823 c9 -2 25 -2 35 0 9 3 1 5 -18 5 -19 0 -27 -2 -17 -5z"/>
<path d="M3526 1817 c3 -10 9 -15 12 -12 3 3 0 11 -7 18 -10 9 -11 8 -5 -6z"/>
<path d="M3643 1818 c16 -6 33 -6 37 -2 5 5 -7 10 -28 10 -37 2 -37 2 -9 -8z"/>
<path d="M2830 1811 c0 -5 7 -15 17 -22 15 -13 15 -12 4 9 -12 23 -21 28 -21
13z"/>
<path d="M3713 1813 c9 -2 23 -2 30 0 6 3 -1 5 -18 5 -16 0 -22 -2 -12 -5z"/>
<path d="M3062 1790 c0 -14 2 -19 5 -12 2 6 2 18 0 25 -3 6 -5 1 -5 -13z"/>
<path d="M3512 1780 c0 -14 2 -19 5 -12 2 6 2 18 0 25 -3 6 -5 1 -5 -13z"/>
<path d="M3943 1767 c-4 -7 -19 -21 -33 -30 -13 -9 -21 -17 -17 -17 14 0 55
31 61 46 7 18 0 18 -11 1z"/>
<path d="M2562 1750 c0 -14 2 -19 5 -12 2 6 2 18 0 25 -3 6 -5 1 -5 -13z"/>
<path d="M3960 1750 c0 -5 5 -10 10 -10 6 0 10 5 10 10 0 6 -4 10 -10 10 -5 0
-10 -4 -10 -10z"/>
<path d="M3512 1730 c0 -14 2 -19 5 -12 2 6 2 18 0 25 -3 6 -5 1 -5 -13z"/>
<path d="M2591 1724 c0 -11 3 -14 6 -6 3 7 2 16 -1 19 -3 4 -6 -2 -5 -13z"/>
<path d="M2791 1724 c0 -11 3 -14 6 -6 3 7 2 16 -1 19 -3 4 -6 -2 -5 -13z"/>
<path d="M3940 1719 c0 -5 5 -7 10 -4 6 3 10 8 10 11 0 2 -4 4 -10 4 -5 0 -10
-5 -10 -11z"/>
<path d="M2556 1703 c-6 -14 -5 -15 5 -6 7 7 10 15 7 18 -3 3 -9 -2 -12 -12z"/>
<path d="M1283 1693 c48 -2 125 -2 170 0 45 1 6 3 -88 3 -93 0 -130 -2 -82 -3z"/>
<path d="M1548 1693 c7 -3 16 -2 19 1 4 3 -2 6 -13 5 -11 0 -14 -3 -6 -6z"/>
<path d="M1848 1693 c18 -2 45 -2 60 0 15 2 0 4 -33 4 -33 0 -45 -2 -27 -4z"/>
<path d="M2188 1693 c6 -2 18 -2 25 0 6 3 1 5 -13 5 -14 0 -19 -2 -12 -5z"/>
<path d="M2292 1693 c37 -2 100 -2 140 0 40 1 10 3 -67 3 -77 0 -110 -1 -73
-3z"/>
<path d="M2643 1693 c15 -2 39 -2 55 0 15 2 2 4 -28 4 -30 0 -43 -2 -27 -4z"/>
<path d="M2738 1693 c6 -2 18 -2 25 0 6 3 1 5 -13 5 -14 0 -19 -2 -12 -5z"/>
<path d="M2968 1693 c18 -2 45 -2 60 0 15 2 0 4 -33 4 -33 0 -45 -2 -27 -4z"/>
<path d="M3192 1693 c48 -2 129 -2 180 0 51 1 12 3 -87 3 -99 0 -141 -2 -93
-3z"/>
<path d="M4178 1693 c18 -2 45 -2 60 0 15 2 0 4 -33 4 -33 0 -45 -2 -27 -4z"/>
<path d="M3648 1683 c6 -2 18 -2 25 0 6 3 1 5 -13 5 -14 0 -19 -2 -12 -5z"/>
<path d="M3768 1683 c7 -3 16 -2 19 1 4 3 -2 6 -13 5 -11 0 -14 -3 -6 -6z"/>
<path d="M988 1563 c7 -3 16 -2 19 1 4 3 -2 6 -13 5 -11 0 -14 -3 -6 -6z"/>
<path d="M695 1540 c-180 -3 -270 -9 -270 -16 0 -10 29 -49 120 -156 28 -33
70 -85 95 -117 48 -61 112 -139 170 -205 32 -36 81 -96 132 -160 16 -20 17 -4
20 322 2 188 3 341 3 340 0 -1 -121 -5 -270 -8z"/>
<path d="M1320 1532 c0 -4 16 -24 35 -42 30 -29 37 -32 45 -20 8 13 180 15
1392 17 761 2 1400 -1 1420 -6 26 -6 39 -5 42 3 3 7 8 7 14 -3 8 -12 15 -9 36
15 14 16 26 32 26 37 0 4 -677 7 -1505 7 -828 0 -1505 -4 -1505 -8z"/>
<path d="M4680 1205 c0 -380 -8 -355 80 -245 25 30 51 61 58 69 7 8 39 46 70
85 31 39 62 78 69 86 6 8 64 78 128 154 118 140 141 158 175 132 13 -10 13 -9
1 7 -8 11 -21 15 -32 12 -11 -4 -19 -2 -19 4 0 6 5 11 11 11 5 0 7 5 4 10 -4
6 -107 10 -276 10 l-269 0 0 -335z"/>
<path d="M5300 1440 c-9 -6 -10 -10 -3 -10 6 0 15 5 18 10 8 12 4 12 -15 0z"/>
<path d="M5468 1328 c11 -14 10 -18 -5 -27 -10 -6 -13 -11 -7 -11 6 0 17 6 23
14 9 10 7 17 -6 27 -16 13 -17 12 -5 -3z"/>
<path d="M165 1300 c-3 -6 1 -7 9 -4 18 7 21 14 7 14 -6 0 -13 -4 -16 -10z"/>
<path d="M205 1300 c-3 -6 1 -7 9 -4 18 7 21 14 7 14 -6 0 -13 -4 -16 -10z"/>
<path d="M5525 1271 c-3 -5 -1 -12 5 -16 6 -4 7 -11 4 -17 -4 -7 -2 -8 5 -4 8
6 9 12 2 20 -6 7 -8 16 -4 19 3 4 4 7 0 7 -3 0 -8 -4 -12 -9z"/>
<path d="M5566 1241 c-3 -5 1 -11 9 -14 9 -4 12 -1 8 9 -6 16 -10 17 -17 5z"/>
<path d="M5195 1161 c-3 -5 -2 -12 3 -15 5 -3 9 1 9 9 0 17 -3 19 -12 6z"/>
<path d="M839 783 c-13 -16 -12 -17 4 -4 9 7 17 15 17 17 0 8 -8 3 -21 -13z"/>
<path d="M4820 766 c0 -2 8 -10 18 -17 15 -13 16 -12 3 4 -13 16 -21 21 -21
13z"/>
<path d="M4916 721 c-3 -4 7 -19 22 -32 l27 -24 -23 26 c-12 14 -19 29 -15 32
3 4 4 7 0 7 -3 0 -8 -4 -11 -9z"/>
<path d="M685 670 c-3 -5 -1 -10 4 -10 6 0 11 5 11 10 0 6 -2 10 -4 10 -3 0
-8 -4 -11 -10z"/>
<path d="M5005 640 c-4 -6 1 -7 11 -3 13 5 15 3 9 -7 -5 -9 -4 -11 4 -6 6 4 9
12 6 17 -8 12 -22 12 -30 -1z"/>
<path d="M609 603 c-13 -16 -12 -17 4 -4 9 7 17 15 17 17 0 8 -8 3 -21 -13z"/>
</g>
</svg>
