<?xml version="1.0" standalone="no"?>
<!DOCTYPE svg PUBLIC "-//W3C//DTD SVG 20010904//EN"
 "http://www.w3.org/TR/2001/REC-SVG-20010904/DTD/svg10.dtd">
<svg version="1.0" xmlns="http://www.w3.org/2000/svg"
 width="1644.000000pt" height="1422.000000pt" viewBox="0 0 1644.000000 1422.000000"
 preserveAspectRatio="xMidYMid meet">

<g transform="translate(0.000000,1422.000000) scale(0.100000,-0.100000)"
fill="#000000" stroke="none">
<path d="M7622 14190 c-1021 -47 -1962 -217 -3001 -541 -236 -74 -1210 -415
-1225 -429 -4 -5 -23 -194 -42 -422 -18 -227 -40 -447 -49 -488 -49 -242 -228
-444 -507 -574 -58 -27 -241 -88 -483 -161 -214 -64 -418 -126 -452 -137 l-63
-19 0 -44 c0 -25 3 -45 8 -45 4 0 43 14 87 31 363 140 721 208 1094 209 l113
0 67 47 c133 94 273 257 345 400 76 153 92 230 125 639 16 190 31 347 33 350
9 8 616 224 873 309 1329 444 2651 640 3920 584 994 -44 1897 -207 2885 -519
162 -52 1017 -355 1028 -365 2 -2 23 -147 47 -322 24 -175 54 -356 66 -403 92
-355 336 -642 694 -815 55 -27 195 -76 360 -125 149 -45 314 -95 368 -111 l97
-30 0 -483 c0 -467 -11 -901 -30 -1171 -5 -71 -8 -131 -7 -132 2 -1 76 169
165 378 l163 380 -1 621 c0 342 -2 623 -3 625 -4 3 -328 103 -677 208 -261 79
-325 105 -442 181 -76 48 -228 189 -228 210 0 8 -4 14 -10 14 -5 0 -10 5 -10
11 0 6 -13 28 -28 48 -38 49 -90 167 -113 255 -19 71 -66 365 -112 694 -14 96
-29 177 -33 182 -13 12 -923 339 -1139 410 -930 303 -1836 477 -2810 540 -220
15 -851 20 -1073 10z"/>
<path d="M7545 13299 c-936 -51 -1891 -240 -2860 -564 -423 -141 -454 -153
-459 -178 -3 -12 -10 -87 -16 -165 -27 -365 -128 -640 -326 -896 -30 -38 -54
-72 -54 -76 0 -3 30 -21 68 -39 231 -113 512 -344 694 -570 259 -321 437 -738
488 -1141 20 -159 30 -512 19 -648 -33 -418 -198 -767 -500 -1059 -153 -148
-330 -268 -579 -392 -247 -123 -501 -213 -773 -275 -60 -13 -110 -26 -112 -28
-1 -2 40 -158 91 -348 161 -593 174 -644 184 -746 21 -206 -24 -330 -144 -398
-22 -13 -160 -63 -306 -111 -146 -48 -268 -91 -273 -95 -4 -3 5 -34 20 -68
l28 -61 64 44 c186 130 412 209 665 234 49 5 92 14 96 21 5 9 9 8 13 -3 4 -10
31 -16 100 -20 329 -22 646 -168 874 -405 l81 -84 144 21 c726 105 1628 183
2503 216 83 3 197 8 255 11 140 8 1168 8 1300 0 58 -4 202 -11 320 -16 256
-12 347 -18 738 -51 459 -37 1483 -158 1558 -184 6 -2 58 42 115 98 159 156
323 255 534 326 80 26 156 41 358 68 l59 8 49 120 c27 65 84 210 125 321 l76
202 -90 293 c-99 321 -221 722 -255 836 -12 40 -24 73 -27 73 -3 0 -30 -33
-60 -72 -137 -184 -438 -573 -685 -888 -148 -190 -290 -371 -314 -403 -45 -61
-110 -114 -164 -134 -66 -24 -163 -15 -322 28 -163 45 -197 61 -245 116 -48
54 -68 110 -96 272 -14 80 -66 378 -115 661 -50 283 -103 589 -119 680 -16 91
-54 309 -85 485 -31 176 -65 372 -76 435 -23 133 -63 362 -119 680 -21 124
-55 316 -75 428 -19 111 -51 291 -70 400 -18 108 -56 325 -84 482 -68 389 -74
436 -69 548 3 76 9 106 28 142 38 75 69 108 126 136 l54 26 198 -6 c108 -4
217 -9 242 -11 25 -2 108 -7 185 -10 77 -3 230 -10 340 -15 110 -6 279 -14
376 -19 159 -8 181 -12 227 -35 57 -29 102 -79 137 -152 18 -38 61 -243 164
-785 203 -1062 230 -1201 235 -1206 5 -6 23 10 358 319 168 154 286 255 316
269 34 17 64 23 112 23 78 0 127 -23 187 -85 38 -39 49 -65 153 -368 120 -348
311 -899 362 -1044 17 -48 34 -84 38 -80 4 4 30 64 58 132 l50 124 -48 96
c-39 79 -96 205 -149 336 -8 18 -10 16 -19 -15 -10 -34 -10 -34 -11 -7 -1 33
-30 127 -40 127 -3 0 1 123 11 273 22 347 38 820 38 1099 l0 217 -102 31
c-428 129 -686 277 -950 546 -297 302 -453 647 -509 1122 -7 56 -17 106 -23
111 -14 11 -365 138 -546 198 -928 304 -1790 471 -2699 523 -211 11 -823 11
-1046 -1z m1180 -594 c478 -39 889 -100 1317 -195 168 -37 492 -118 563 -141
17 -5 98 -29 180 -54 83 -24 204 -63 270 -85 66 -23 141 -48 167 -56 26 -8 50
-19 54 -25 4 -7 -1 -7 -15 0 -16 9 -21 9 -21 0 0 -6 -6 -9 -14 -6 -8 3 -32 9
-53 12 -30 5 -35 4 -23 -5 13 -10 12 -11 -3 -6 -10 3 -24 6 -30 6 -9 0 -9 2 0
8 6 4 -41 8 -105 9 -63 0 -150 4 -191 8 -42 4 -110 9 -151 11 -41 1 -102 8
-135 14 -33 5 -80 12 -105 15 -25 3 -70 10 -100 15 -30 5 -97 12 -147 15 -51
4 -93 11 -93 17 0 5 -20 7 -46 4 -25 -3 -54 -1 -64 4 -10 5 -44 12 -76 14
-144 13 -181 17 -207 26 -15 5 -25 6 -23 1 3 -4 -11 -4 -32 0 -51 12 -286 48
-347 54 -157 15 -185 18 -185 24 0 3 -21 6 -46 5 -26 0 -92 6 -148 13 -56 8
-139 18 -186 23 -47 5 -116 14 -155 20 -38 6 -98 13 -133 14 -100 6 -292 29
-292 35 0 3 -43 5 -95 3 -52 -2 -95 0 -95 5 0 4 -33 9 -72 11 -40 1 -77 7 -82
12 -14 14 -39 13 -30 -1 4 -8 1 -8 -12 -1 -11 5 -39 10 -64 12 -64 3 -83 6
-100 13 -8 3 -22 5 -30 4 -16 -2 -187 14 -230 21 -14 2 -65 5 -115 6 -49 1
-96 5 -104 10 -12 8 -116 16 -223 17 -21 1 -38 6 -38 11 0 6 -12 8 -30 5 -16
-4 -38 -3 -47 1 -25 9 26 17 352 55 125 15 380 34 535 41 186 8 877 -4 1055
-19z m-178 -974 c61 -27 121 -88 156 -158 13 -26 213 -617 445 -1313 720
-2167 1064 -3242 1123 -3510 40 -184 34 -402 -13 -495 -47 -93 -129 -143 -252
-152 -73 -5 -277 14 -1151 108 -258 27 -494 56 -523 63 -109 29 -194 102 -230
198 -11 30 -45 198 -76 374 -31 175 -59 331 -62 347 l-6 27 -389 -2 -390 -3
-80 -315 c-138 -546 -153 -586 -243 -644 -69 -45 61 -31 -1641 -175 -379 -33
-402 -32 -481 14 -81 48 -136 143 -156 272 -14 89 -1 189 41 323 16 52 71 235
121 405 51 171 132 443 180 605 49 162 165 554 259 870 93 316 272 919 396
1340 125 421 256 864 292 985 180 611 188 630 283 725 82 83 129 101 285 112
133 9 1513 27 1865 24 181 -1 199 -3 247 -25z"/>
<path d="M7780 11543 c-173 -1 -562 -7 -863 -13 -601 -11 -577 -8 -635 -75
-56 -63 -29 19 -351 -1065 -82 -278 -227 -768 -321 -1090 -94 -322 -286 -967
-425 -1435 -140 -467 -283 -949 -319 -1070 -36 -121 -66 -229 -66 -241 0 -26
26 -50 63 -59 19 -5 27 -14 27 -29 0 -13 11 -28 28 -38 27 -16 69 -14 843 52
1086 92 1051 89 1072 107 22 21 37 73 152 528 113 447 111 442 136 455 12 7
194 10 519 10 457 -1 500 -3 504 -18 3 -9 35 -185 70 -390 36 -205 73 -388 81
-407 10 -19 29 -38 46 -45 17 -7 36 -25 44 -40 28 -55 24 -54 645 -120 511
-55 974 -100 1022 -100 60 0 94 15 108 49 20 48 -19 201 -181 721 -308 984
-1355 4144 -1392 4197 -12 18 -28 33 -34 33 -7 0 -23 16 -35 35 -13 19 -36 39
-52 45 -17 6 -103 9 -200 8 -94 -2 -313 -4 -486 -5z m568 -223 c12 -13 67
-183 147 -458 70 -240 162 -545 205 -677 203 -624 467 -1454 572 -1800 38
-126 139 -455 223 -730 237 -772 236 -767 215 -806 -15 -27 -65 -25 -363 16
-138 19 -355 48 -480 65 -232 31 -275 43 -301 83 -8 12 -58 195 -111 407 -83
334 -99 388 -121 408 l-25 22 -702 -1 c-386 -1 -711 -4 -722 -7 -53 -18 -55
-22 -171 -411 -63 -211 -121 -396 -129 -412 -9 -15 -25 -34 -36 -40 -25 -13
-278 -42 -1204 -139 -104 -11 -207 -22 -227 -25 -51 -7 -83 23 -75 70 7 40
467 1521 642 2065 26 80 116 366 202 635 152 480 188 595 353 1120 149 475
170 535 198 566 l27 29 424 11 c234 6 562 14 730 18 168 4 397 9 508 9 192 2
203 1 221 -18z"/>
<path d="M8117 11182 c-17 -19 -22 -67 -11 -97 9 -22 59 -46 81 -38 52 18 71
83 37 131 -20 28 -83 31 -107 4z m71 -59 c-2 -10 -10 -18 -18 -18 -8 0 -16 8
-18 18 -2 12 3 17 18 17 15 0 20 -5 18 -17z"/>
<path d="M6533 11124 c-21 -21 -24 -32 -19 -62 11 -70 85 -97 125 -46 28 36
27 79 -4 109 -31 32 -69 32 -102 -1z m72 -55 c0 -7 -8 -15 -17 -17 -18 -3 -25
18 -11 32 10 10 28 1 28 -15z"/>
<path d="M7815 10412 c14 -34 30 -93 37 -132 24 -142 -24 -309 -118 -410 -89
-96 -147 -110 -334 -82 -69 11 -127 17 -130 15 -8 -7 51 -53 87 -69 40 -17
214 -44 290 -44 71 0 128 26 182 85 102 111 143 284 106 444 -18 77 -75 187
-116 227 l-29 28 25 -62z"/>
<path d="M8616 9945 c68 -191 29 -437 -94 -592 -30 -37 -60 -60 -109 -85 -60
-29 -77 -33 -150 -33 -79 0 -81 -1 -65 -19 39 -42 103 -70 166 -70 157 -1 277
99 344 286 22 63 25 90 26 203 1 113 -2 137 -22 187 -21 52 -113 169 -96 123z"/>
<path d="M6850 9869 c0 -2 7 -26 16 -54 8 -27 18 -103 21 -167 5 -95 3 -125
-10 -160 -19 -49 -157 -197 -209 -224 -36 -19 -141 -25 -193 -11 -29 8 -29 8
-10 -12 10 -12 46 -35 80 -52 71 -35 159 -43 193 -19 128 94 207 169 229 218
15 33 16 175 3 262 -13 78 -48 155 -90 195 -16 16 -30 27 -30 24z"/>
<path d="M7818 9410 c54 -76 86 -109 41 -43 -23 35 -49 69 -57 75 -9 7 -2 -7
16 -32z"/>
<path d="M8164 9014 c31 -77 42 -196 26 -283 -29 -159 -146 -287 -298 -326
-72 -19 -115 -13 -263 34 -139 45 -288 52 -419 20 -98 -24 -250 -32 -300 -16
-50 16 50 -62 107 -83 70 -26 110 -25 262 6 110 23 142 26 251 21 108 -4 137
-10 215 -38 75 -27 105 -32 180 -33 79 -1 96 2 141 26 77 41 150 117 186 195
30 62 32 76 32 173 1 123 -17 193 -67 266 -34 50 -67 73 -53 38z"/>
<path d="M8690 7237 c-52 -26 -51 -101 2 -140 24 -18 30 -19 58 -7 56 23 66
86 21 131 -33 32 -44 35 -81 16z m48 -74 c-4 -22 -22 -20 -26 1 -2 10 3 16 13
16 10 0 15 -7 13 -17z"/>
<path d="M6370 7160 c-23 -23 -26 -76 -7 -101 36 -46 98 -46 122 2 20 38 19
62 -6 93 -26 33 -79 36 -109 6z m73 -55 c4 -8 2 -17 -4 -21 -12 -7 -41 15 -33
27 8 14 31 11 37 -6z"/>
<path d="M5270 7100 c-29 -29 -27 -84 5 -115 29 -30 64 -32 96 -6 30 24 33 89
5 120 -25 27 -79 28 -106 1z m73 -46 c9 -9 -4 -34 -18 -34 -14 0 -27 25 -18
34 4 3 12 6 18 6 6 0 14 -3 18 -6z"/>
<path d="M9490 7060 c-29 -29 -27 -90 3 -118 50 -47 117 -14 117 58 0 70 -73
107 -120 60z m70 -60 c0 -11 -6 -20 -14 -20 -18 0 -29 16 -21 30 11 18 35 11
35 -10z"/>
<path d="M3731 12740 c0 -86 55 -170 137 -207 115 -53 263 -7 318 99 22 43 16
46 -15 8 -69 -85 -216 -113 -310 -60 -57 32 -101 87 -117 147 -12 46 -13 47
-13 13z"/>
<path d="M11876 12725 c18 -157 160 -248 318 -204 46 13 124 82 143 128 8 18
12 36 9 39 -3 3 -6 0 -6 -6 0 -20 -62 -83 -103 -103 -51 -27 -133 -35 -183
-19 -86 27 -139 81 -169 172 l-15 43 6 -50z"/>
<path d="M9923 11369 c-7 -7 -13 -30 -13 -51 0 -21 68 -422 151 -891 200
-1131 310 -1766 554 -3187 123 -716 130 -745 185 -772 19 -9 90 -31 158 -49
172 -45 172 -45 285 101 144 187 378 482 1131 1427 67 83 124 148 127 145 4
-4 25 -68 47 -142 95 -312 497 -1617 542 -1760 53 -167 81 -214 144 -244 31
-14 180 -39 579 -96 148 -22 199 -18 229 17 8 10 72 117 143 238 70 121 165
283 210 360 45 77 257 439 470 805 213 366 568 973 788 1350 220 377 442 757
494 845 51 88 93 165 93 172 0 7 -8 21 -18 31 -13 13 -17 29 -14 58 l4 40
-424 281 c-883 585 -963 637 -993 641 -58 7 -2 127 -649 -1378 -504 -1170
-640 -1480 -648 -1472 -7 7 -278 786 -433 1242 -192 566 -217 635 -232 652
-22 24 -64 23 -99 -4 -58 -45 -339 -290 -677 -591 -98 -87 -181 -156 -184
-153 -3 3 -37 169 -75 368 -284 1497 -324 1706 -349 1815 -26 114 -47 139
-122 147 -29 3 -308 17 -622 31 -313 14 -615 28 -670 31 -75 4 -103 3 -112 -7z
m1253 -254 c18 -7 37 -26 47 -46 8 -19 68 -306 132 -639 102 -533 213 -1109
306 -1587 16 -83 29 -160 29 -171 0 -12 4 -23 9 -26 8 -5 178 130 551 439 298
248 405 333 433 346 33 15 100 -4 126 -38 12 -14 42 -91 67 -172 25 -80 61
-193 79 -251 18 -58 66 -211 105 -340 99 -325 293 -908 320 -961 31 -61 68
-109 85 -109 21 0 30 17 374 775 73 160 138 304 146 320 7 17 41 87 74 157 57
122 356 779 604 1328 64 140 129 271 145 290 27 32 34 35 83 35 49 0 64 -6
169 -71 63 -40 165 -102 225 -139 183 -113 577 -356 630 -391 28 -17 57 -40
65 -49 23 -28 16 -88 -17 -147 -17 -29 -97 -170 -178 -313 -81 -143 -210 -372
-287 -510 -173 -307 -248 -441 -348 -615 -43 -74 -189 -331 -325 -570 -136
-239 -340 -597 -453 -795 -112 -198 -231 -407 -264 -465 -71 -124 -118 -177
-167 -186 -20 -4 -113 4 -225 21 -422 61 -479 75 -530 136 -32 38 -44 71 -195
546 -466 1469 -471 1484 -517 1491 -21 3 -17 8 -648 -742 -121 -144 -332 -396
-468 -561 -137 -165 -261 -315 -277 -332 l-28 -33 -74 21 c-87 24 -117 41
-124 72 -2 12 -27 168 -55 347 -28 179 -102 647 -165 1040 -170 1060 -210
1308 -254 1595 -23 143 -75 475 -116 738 -41 263 -75 498 -75 522 0 31 5 47
18 55 26 15 927 2 968 -15z"/>
<path d="M11010 11023 c-34 -12 -50 -37 -50 -75 0 -48 28 -78 73 -78 43 0 67
26 67 72 0 54 -47 96 -90 81z m37 -87 c-4 -9 -13 -13 -22 -10 -18 7 -20 31 -2
37 17 6 31 -9 24 -27z"/>
<path d="M10317 10982 c-10 -11 -17 -35 -17 -60 0 -32 6 -45 26 -61 35 -27 59
-26 89 4 51 50 18 135 -52 135 -16 0 -37 -8 -46 -18z m71 -59 c-2 -10 -10 -18
-18 -18 -8 0 -16 8 -18 18 -2 12 3 17 18 17 15 0 20 -5 18 -17z"/>
<path d="M14820 10290 c-38 -38 -21 -109 31 -128 75 -28 127 67 71 131 -21 24
-77 22 -102 -3z m73 -55 c1 -5 -6 -11 -15 -13 -11 -2 -18 3 -18 13 0 17 30 18
33 0z"/>
<path d="M15665 9810 c-29 -32 -25 -88 9 -116 35 -31 61 -30 91 1 31 30 32 73
4 109 -26 33 -77 36 -104 6z m70 -60 c0 -22 -29 -18 -33 3 -3 14 1 18 15 15
10 -2 18 -10 18 -18z"/>
<path d="M12657 9228 c-26 -21 -38 -63 -26 -98 29 -81 139 -60 139 25 0 63
-68 107 -113 73z m61 -71 c2 -12 -3 -17 -17 -17 -12 0 -21 6 -21 13 0 31 32
34 38 4z"/>
<path d="M10931 7044 c-28 -36 -27 -79 4 -109 31 -32 69 -32 102 1 21 21 24
32 19 62 -11 70 -85 97 -125 46z m77 -51 c5 -17 -26 -29 -40 -15 -6 6 -7 15
-3 22 9 14 37 9 43 -7z"/>
<path d="M13276 6649 c-33 -26 -35 -75 -5 -113 52 -66 149 0 119 80 -21 55
-68 69 -114 33z m61 -54 c7 -20 -2 -29 -21 -22 -9 4 -13 13 -10 22 8 19 23 19
31 0z"/>
<path d="M13934 6478 c-23 -11 -44 -48 -44 -77 0 -10 9 -30 21 -45 42 -54 129
-23 129 47 -1 36 -14 58 -47 75 -26 14 -31 14 -59 0z m46 -88 c-19 -12 -35 3
-26 26 6 17 8 17 24 0 15 -15 15 -18 2 -26z"/>
<path d="M2745 11350 c-415 -42 -797 -165 -1321 -428 -397 -199 -718 -415
-921 -620 -162 -163 -283 -371 -283 -486 0 -46 13 -75 325 -711 76 -154 188
-383 250 -510 62 -126 199 -405 305 -620 363 -736 513 -1041 712 -1450 110
-225 227 -465 260 -532 49 -100 64 -122 86 -128 14 -3 32 -15 40 -26 9 -13 25
-19 51 -19 52 0 959 305 989 333 12 11 22 28 22 38 0 9 -85 333 -190 720 -104
387 -190 704 -190 706 0 2 10 3 21 3 37 0 269 41 379 66 413 97 804 271 1078
479 271 207 438 436 530 726 43 133 62 258 67 423 18 700 -342 1364 -960 1769
-213 139 -400 211 -660 252 -119 19 -462 27 -590 15z m573 -220 c238 -39 424
-116 607 -252 476 -353 754 -891 756 -1463 2 -486 -192 -834 -626 -1120 -102
-67 -350 -189 -488 -240 -262 -96 -605 -155 -909 -155 -76 0 -138 -2 -138 -5
0 -3 22 -83 49 -178 172 -600 321 -1143 321 -1167 0 -32 -20 -64 -53 -87 -18
-11 -148 -60 -289 -108 -264 -89 -299 -95 -328 -60 -12 14 -353 697 -930 1860
-180 363 -438 884 -575 1159 -230 464 -247 502 -246 550 0 70 27 125 104 221
140 173 327 327 602 495 409 251 1006 482 1411 545 247 39 513 41 732 5z"/>
<path d="M2837 11022 c-23 -25 -21 -84 1 -113 13 -15 30 -22 52 -22 62 0 95
88 50 133 -26 26 -81 26 -103 2z m73 -55 c0 -19 -10 -27 -26 -20 -21 8 -17 33
6 33 11 0 20 -6 20 -13z"/>
<path d="M4265 9985 c-50 -49 -15 -135 54 -135 36 0 71 40 71 82 0 36 -40 78
-75 78 -14 0 -37 -11 -50 -25z m70 -56 c0 -7 -8 -15 -17 -17 -18 -3 -25 18
-11 32 10 10 28 1 28 -15z"/>
<path d="M626 9938 c-52 -74 29 -172 97 -118 34 27 38 89 7 120 -28 28 -84 27
-104 -2z m72 -55 c-2 -10 -10 -18 -18 -18 -8 0 -16 8 -18 18 -2 12 3 17 18 17
15 0 20 -5 18 -17z"/>
<path d="M2718 9925 c-287 -41 -537 -142 -665 -270 -84 -84 -87 -100 -47 -244
65 -237 310 -991 329 -1009 12 -12 356 -7 465 7 459 59 749 249 846 555 82
260 -1 565 -210 771 -90 88 -199 152 -311 180 -85 22 -289 27 -407 10z m462
-266 c91 -31 164 -106 224 -232 50 -105 66 -168 66 -268 0 -255 -202 -442
-565 -524 -56 -12 -259 -35 -317 -35 l-57 0 -94 288 c-52 158 -114 351 -137
430 -51 167 -54 157 69 220 257 134 615 187 811 121z"/>
<path d="M2825 9294 c-141 -20 -325 -70 -325 -88 0 -17 121 -380 130 -390 5
-4 22 -5 39 -1 l31 7 -6 78 c-6 72 -5 80 16 101 12 13 25 33 29 43 8 19 31
-124 31 -187 0 -34 21 -35 137 -7 154 37 272 105 318 184 l26 45 -21 41 c-32
62 -86 117 -146 146 -44 21 -71 27 -142 29 -48 2 -100 1 -117 -1z"/>
<path d="M3687 8378 c-26 -21 -38 -63 -26 -98 29 -81 139 -60 139 25 0 63 -68
107 -113 73z m59 -59 c10 -17 -13 -36 -27 -22 -12 12 -4 33 11 33 5 0 12 -5
16 -11z"/>
<path d="M2588 7933 c29 -2 74 -2 100 0 26 2 2 3 -53 3 -55 0 -76 -1 -47 -3z"/>
<path d="M2591 7480 c0 -8 4 -24 9 -35 5 -13 9 -14 9 -5 0 8 -4 24 -9 35 -5
13 -9 14 -9 5z"/>
<path d="M2611 7410 c0 -8 4 -24 9 -35 5 -13 9 -14 9 -5 0 8 -4 24 -9 35 -5
13 -9 14 -9 5z"/>
<path d="M2631 7340 c0 -8 4 -24 9 -35 5 -13 9 -14 9 -5 0 8 -4 24 -9 35 -5
13 -9 14 -9 5z"/>
<path d="M2656 7255 c2 -16 13 -57 24 -90 11 -33 17 -46 14 -30 -2 17 -13 57
-24 90 -11 33 -17 47 -14 30z"/>
<path d="M1776 7257 c3 -10 9 -15 12 -12 3 3 0 11 -7 18 -10 9 -11 8 -5 -6z"/>
<path d="M2700 7097 c0 -4 33 -126 74 -272 88 -313 88 -311 -2 -346 -170 -64
-471 -159 -495 -157 -34 4 -29 -5 -182 311 -64 130 -118 237 -120 237 -7 0 29
-76 150 -323 69 -141 115 -223 130 -233 23 -15 38 -11 291 75 147 50 275 98
285 107 35 32 31 59 -46 332 -68 236 -85 292 -85 269z"/>
<path d="M1896 7017 c3 -10 9 -15 12 -12 3 3 0 11 -7 18 -10 9 -11 8 -5 -6z"/>
<path d="M1956 6897 c3 -10 9 -15 12 -12 3 3 0 11 -7 18 -10 9 -11 8 -5 -6z"/>
<path d="M2657 6662 c-26 -28 -22 -88 8 -117 30 -30 54 -31 89 -4 31 24 36 81
10 117 -20 28 -83 31 -107 4z m71 -59 c-2 -10 -10 -18 -18 -18 -8 0 -16 8 -18
18 -2 12 3 17 18 17 15 0 20 -5 18 -17z"/>
<path d="M2255 6505 c-50 -49 -15 -135 54 -135 36 0 71 40 71 82 0 36 -40 78
-75 78 -14 0 -37 -11 -50 -25z m70 -55 c0 -8 -8 -16 -17 -18 -13 -2 -18 3 -18
18 0 15 5 20 18 18 9 -2 17 -10 17 -18z"/>
<path d="M13047 5640 c-4 -17 6 -26 66 -56 40 -20 109 -60 154 -90 44 -30 83
-54 86 -54 3 0 15 25 27 56 l23 56 46 -6 c25 -3 73 -8 106 -11 56 -4 57 -4 15
4 -25 5 -118 21 -206 35 -161 26 -241 47 -279 73 -26 18 -32 17 -38 -7z"/>
<path d="M3436 5549 c-468 -53 -842 -355 -990 -799 -147 -443 -40 -942 275
-1274 l78 -83 -14 -40 c-8 -23 -24 -88 -36 -145 -28 -135 -30 -370 -5 -503 79
-412 306 -733 629 -890 149 -72 224 -89 412 -89 139 -1 171 3 245 23 401 112
710 416 845 832 l28 86 51 12 c504 120 1202 230 1751 275 521 44 691 50 1320
51 610 0 739 -4 1215 -41 404 -30 705 -68 1130 -140 323 -55 792 -151 804
-165 2 -2 15 -42 31 -89 82 -254 243 -482 450 -638 98 -74 270 -157 390 -189
134 -35 347 -38 467 -5 236 64 429 195 578 394 75 99 170 292 205 413 73 254
74 544 4 779 l-21 69 30 24 c50 38 158 175 211 264 65 111 115 235 147 361 35
144 44 362 19 509 -121 729 -820 1160 -1530 944 -217 -66 -437 -215 -567 -385
-34 -45 -58 -68 -68 -65 -100 30 -813 122 -1315 170 -859 82 -1521 111 -2270
101 -546 -7 -595 -9 -1085 -37 -757 -43 -1502 -114 -2055 -195 l-240 -36 -35
44 c-195 241 -438 390 -724 443 -98 18 -266 25 -360 14z m329 -211 c260 -40
511 -209 649 -437 21 -33 38 -61 40 -61 1 0 74 11 162 25 726 112 1814 207
2824 245 354 14 1208 14 1510 0 686 -30 1326 -85 2000 -171 227 -29 695 -96
715 -103 6 -2 26 24 45 57 41 71 151 191 230 252 252 194 598 254 904 158 655
-205 899 -1012 478 -1579 -58 -79 -167 -182 -231 -220 -36 -22 -37 -23 -12
-72 64 -126 111 -328 111 -479 0 -576 -422 -1039 -920 -1010 -340 20 -649 241
-810 579 -39 83 -90 241 -90 282 0 11 -4 26 -8 33 -24 37 -687 173 -1257 257
-1078 159 -2364 183 -3590 65 -437 -42 -1134 -155 -1535 -250 -202 -47 -230
-57 -230 -78 0 -50 -55 -227 -99 -316 -176 -360 -523 -581 -881 -562 -220 12
-400 96 -561 264 -295 306 -370 819 -177 1207 16 32 28 59 26 61 -2 2 -30 23
-63 48 -240 178 -387 455 -402 758 -21 412 192 782 555 964 181 90 388 118
617 83z"/>
<path d="M7255 4899 c-121 -4 -298 -13 -393 -18 -95 -6 -189 -11 -209 -11
l-36 0 7 -307 c4 -169 8 -308 9 -309 1 -1 77 3 170 9 l167 10 0 144 c0 79 5
153 10 163 6 11 28 25 50 31 68 21 70 15 70 -200 0 -102 3 -277 7 -389 l6
-203 205 1 c160 1 207 -1 213 -12 7 -10 9 -10 9 2 0 10 7 7 20 -10 11 -14 20
-20 20 -13 0 6 -3 14 -7 16 -5 3 -6 189 -3 413 5 386 6 409 23 412 10 2 29 1
42 -2 47 -12 52 -27 60 -181 l7 -145 169 0 169 0 0 305 0 305 -282 -2 c-156 0
-382 -5 -503 -9z"/>
<path d="M8220 4794 c0 -115 0 -117 30 -151 l30 -34 -2 -404 -3 -404 214 -1
c118 0 218 -3 222 -6 5 -3 10 3 10 13 1 10 5 5 9 -12 6 -24 8 -26 9 -7 1 15 7
22 21 22 18 0 20 8 22 113 l3 112 42 3 c92 7 143 -51 143 -163 0 -38 5 -77 10
-85 6 -9 10 -10 10 -3 0 16 471 18 480 2 12 -18 11 197 0 227 -15 39 -45 70
-108 110 -45 29 -51 37 -43 53 6 10 23 23 39 29 47 16 98 68 123 124 20 45 23
70 24 163 0 103 -2 113 -29 163 -64 114 -194 202 -331 221 -84 12 -551 31
-769 31 l-156 0 0 -116z m723 -193 c67 -26 78 -244 14 -286 -17 -10 -39 -12
-92 -7 l-70 7 -3 134 c-1 74 0 141 2 148 6 15 111 18 149 4z"/>
<path d="M8840 4541 c0 -18 6 -21 51 -21 43 0 50 3 47 18 -2 13 -15 18 -51 20
-42 3 -47 1 -47 -17z"/>
<path d="M5990 4820 c-236 -25 -511 -58 -515 -62 -4 -4 -92 -494 -130 -718
-14 -85 -28 -165 -31 -177 l-4 -23 585 0 c550 0 585 -1 585 -17 1 -16 2 -16
12 1 8 15 8 21 0 24 -7 2 -10 7 -7 12 4 6 -86 341 -239 895 -27 96 -7 91 -256
65z m-121 -600 c22 -69 41 -135 41 -147 0 -26 -31 -48 -80 -57 -46 -8 -73 11
-73 50 0 46 56 295 64 287 3 -5 25 -64 48 -133z"/>
<path d="M10032 4815 c-138 -31 -231 -95 -279 -193 -25 -51 -28 -69 -35 -226
-10 -234 -9 -576 3 -598 9 -16 28 -18 217 -18 114 0 214 4 222 10 9 5 19 5 26
-1 8 -6 14 -6 18 -1 3 6 11 158 17 338 6 181 15 341 20 355 24 63 116 63 174
-1 18 -20 19 -34 17 -208 -2 -103 -5 -258 -8 -346 l-4 -158 25 16 c16 10 23
12 20 4 -4 -10 39 -12 205 -8 137 3 210 2 210 -5 0 -5 5 -2 11 8 5 9 7 22 3
29 -5 7 -3 8 5 4 7 -5 10 -14 7 -22 -3 -8 -2 -14 3 -14 13 0 20 94 27 375 6
249 5 262 -15 315 -59 151 -198 257 -428 326 -74 22 -112 27 -243 30 -110 3
-173 0 -218 -11z"/>
<path d="M11176 4561 l-7 -101 33 -41 c37 -47 35 -9 22 -421 -5 -179 -4 -209
9 -223 9 -8 17 -10 19 -5 2 6 96 10 236 10 l232 1 0 27 c0 14 5 123 11 242 11
228 16 250 64 272 22 10 24 16 27 112 2 55 2 102 2 104 -2 4 -327 67 -477 92
-67 12 -131 23 -143 26 -20 5 -21 0 -28 -95z"/>
<path d="M4730 4644 c-101 -12 -476 -85 -787 -151 -22 -5 -23 -10 -23 -104 l0
-98 34 -34 c37 -38 37 -37 52 -289 l6 -108 26 0 c15 -1 121 0 236 0 156 1 212
-3 224 -12 13 -11 15 -10 9 5 -4 12 -1 17 9 17 10 0 14 -6 11 -15 -4 -8 -2
-17 3 -20 6 -4 10 1 10 9 0 14 30 16 251 16 198 0 249 -3 242 -12 -4 -7 6 -5
22 6 17 10 24 13 18 5 -20 -21 -15 -34 5 -16 27 25 38 21 16 -5 l-19 -23 22
19 c13 10 21 22 18 26 -2 4 6 16 19 27 28 25 63 125 72 208 7 73 -11 263 -32
335 -30 103 -86 159 -189 193 -51 17 -192 28 -255 21z m-88 -305 c36 -19 51
-75 56 -216 6 -182 -3 -200 -113 -219 -22 -4 -48 -11 -57 -15 -29 -15 -35 16
-42 222 -5 152 -3 199 6 207 12 9 83 28 116 31 7 1 22 -4 34 -10z"/>
<path d="M4565 4291 c-16 -3 -31 -14 -33 -23 -3 -14 5 -17 51 -15 50 2 54 4
47 22 -8 22 -21 26 -65 16z"/>
<path d="M7620 4560 c0 -19 11 -26 23 -14 8 8 -3 34 -14 34 -5 0 -9 -9 -9 -20z"/>
<path d="M7020 4539 c0 -24 23 -21 28 4 2 10 -3 17 -12 17 -10 0 -16 -9 -16
-21z"/>
<path d="M10287 4473 c-4 -3 -7 -13 -7 -22 0 -12 12 -16 50 -17 54 -1 60 4 32
29 -19 17 -63 23 -75 10z"/>
<path d="M11797 4263 c-4 -3 -7 -13 -7 -21 0 -12 3 -12 15 -2 8 7 15 16 15 21
0 11 -14 12 -23 2z"/>
<path d="M7692 4233 c3 -16 20 -18 158 -21 169 -3 200 1 200 23 0 13 -28 15
-181 15 -166 0 -180 -1 -177 -17z"/>
<path d="M6723 4211 c-95 -6 -110 -11 -98 -31 6 -9 48 -11 164 -5 173 7 191
10 191 31 0 15 -74 17 -257 5z"/>
<path d="M9430 4189 c-22 -18 -29 -29 -19 -29 16 0 66 46 58 54 -2 3 -20 -9
-39 -25z"/>
<path d="M3920 4201 c0 -6 5 -13 10 -16 6 -3 10 1 10 9 0 9 -4 16 -10 16 -5 0
-10 -4 -10 -9z"/>
<path d="M8830 3970 c0 -14 7 -20 21 -20 11 0 29 -5 40 -10 26 -15 24 2 -4 28
-29 28 -57 29 -57 2z"/>
<path d="M8760 3790 c0 -5 5 -10 10 -10 6 0 10 5 10 10 0 6 -4 10 -10 10 -5 0
-10 -4 -10 -10z"/>
<path d="M11925 3781 c-3 -5 0 -13 6 -17 8 -5 9 -3 4 6 -6 10 -4 12 9 7 10 -4
15 -3 11 3 -8 13 -22 13 -30 1z"/>
<path d="M5090 3744 c-83 -67 -170 -101 -348 -133 -89 -17 -166 -33 -172 -36
-5 -3 -7 -12 -4 -19 5 -13 93 -2 274 35 107 21 214 84 284 167 27 31 18 27
-34 -14z"/>
<path d="M11966 3763 c-6 -14 -5 -15 5 -6 7 7 10 15 7 18 -3 3 -9 -2 -12 -12z"/>
<path d="M12030 3760 c8 -5 20 -10 25 -10 6 0 3 5 -5 10 -8 5 -19 10 -25 10
-5 0 -3 -5 5 -10z"/>
<path d="M5811 3731 c-57 -8 -67 -31 -14 -32 93 -2 143 9 143 31 0 11 -56 11
-129 1z"/>
<path d="M9815 3470 c54 -60 79 -79 160 -119 215 -106 610 -132 767 -50 37 19
107 79 120 102 9 18 6 17 -23 -7 -51 -44 -142 -83 -222 -97 -96 -16 -305 -6
-436 21 -155 31 -213 58 -371 167 -22 15 -22 13 5 -17z"/>
<path d="M7231 3469 c-107 -4 -198 -12 -203 -17 -25 -25 29 -28 322 -16 168 6
306 12 308 13 1 0 2 8 2 16 0 17 -87 18 -429 4z"/>
<path d="M8210 3472 c0 -25 46 -29 326 -36 246 -5 293 -4 297 8 3 8 -1 17 -8
20 -8 3 -150 8 -315 12 -219 5 -300 4 -300 -4z"/>
<path d="M8950 3453 c0 -25 37 -33 201 -43 96 -5 217 -13 270 -16 72 -5 98 -3
104 6 4 7 2 16 -4 20 -7 4 -96 12 -199 19 -103 6 -229 14 -279 18 -60 4 -93 2
-93 -4z"/>
<path d="M6400 3419 c-469 -43 -479 -44 -454 -69 7 -7 95 -3 280 14 148 14
289 27 314 28 33 2 46 7 48 21 3 15 -4 17 -50 16 -29 -1 -91 -5 -138 -10z"/>
<path d="M5705 3349 c-154 -19 -441 -60 -459 -65 -16 -5 -16 -8 -4 -20 13 -13
28 -13 119 0 57 8 163 22 234 31 165 21 189 27 193 48 2 9 0 16 -5 16 -4 -1
-39 -5 -78 -10z"/>
<path d="M11140 3207 c0 -16 13 -19 170 -47 118 -21 618 -121 675 -135 307
-73 305 -73 305 -50 0 8 -16 19 -37 25 -156 43 -925 201 -1057 216 -47 6 -56
4 -56 -9z"/>
<path d="M4345 3126 c-376 -78 -363 -74 -350 -96 4 -7 19 -10 34 -7 124 22
572 117 580 122 12 7 15 35 4 34 -5 0 -125 -24 -268 -53z"/>
<path d="M13643 5523 c9 -2 25 -2 35 0 9 3 1 5 -18 5 -19 0 -27 -2 -17 -5z"/>
<path d="M13718 5513 c6 -2 18 -2 25 0 6 3 1 5 -13 5 -14 0 -19 -2 -12 -5z"/>
<path d="M13861 4164 c0 -11 3 -14 6 -6 3 7 2 16 -1 19 -3 4 -6 -2 -5 -13z"/>
<path d="M7690 2848 c-3 -3 -106 -8 -230 -12 -124 -3 -288 -10 -365 -16 -77
-5 -176 -12 -220 -15 -44 -3 -100 -8 -125 -10 -25 -3 -74 -7 -110 -10 -423
-37 -992 -126 -1485 -231 l-120 -26 -35 -90 c-19 -50 -56 -128 -82 -174 l-46
-84 146 -141 c246 -238 652 -591 897 -780 451 -348 935 -657 1450 -925 200
-104 661 -324 678 -324 22 0 555 249 848 395 702 352 1460 911 2171 1604 l158
153 -19 27 c-27 38 -89 164 -127 256 l-32 80 -103 22 c-353 77 -947 176 -1274
212 -198 22 -607 55 -895 71 -200 12 -1072 26 -1080 18z m2910 -373 c124 -26
267 -56 287 -59 7 -1 15 -5 19 -8 3 -4 12 -4 20 -1 16 6 19 -13 4 -22 -6 -4
-8 -10 -6 -14 7 -11 53 -6 73 10 48 38 -81 -102 -204 -221 -419 -407 -833
-744 -1283 -1045 -416 -279 -714 -443 -1254 -690 l-210 -95 -34 16 c-580 275
-890 442 -1272 687 -504 323 -1010 725 -1442 1146 -85 82 -104 106 -73 95 8
-3 21 0 29 8 11 12 12 17 0 33 -20 27 -18 31 20 53 54 32 236 75 411 98 28 3
52 8 54 10 2 2 18 -7 35 -19 34 -25 81 -26 72 -1 -3 8 -3 14 -1 14 3 0 83 -67
177 -148 631 -542 1233 -947 1866 -1255 l163 -79 117 52 c694 313 1322 735
2000 1343 73 66 135 117 139 113 3 -3 0 -6 -7 -6 -23 0 -2 -12 27 -16 16 -2
38 5 53 16 29 22 52 21 220 -15z"/>
<path d="M7801 657 c-4 -120 93 -229 218 -244 92 -11 200 46 241 128 28 54 25
59 -9 12 -39 -54 -126 -97 -195 -97 -69 0 -121 20 -168 62 -44 40 -64 73 -77
129 -8 33 -9 35 -10 10z"/>
<path d="M13511 2784 c0 -11 3 -14 6 -6 3 7 2 16 -1 19 -3 4 -6 -2 -5 -13z"/>
<path d="M13416 2385 c-9 -26 -7 -32 5 -12 6 10 9 21 6 23 -2 3 -7 -2 -11 -11z"/>
</g>
</svg>
