<?xml version="1.0" standalone="no"?>
<!DOCTYPE svg PUBLIC "-//W3C//DTD SVG 20010904//EN"
 "http://www.w3.org/TR/2001/REC-SVG-20010904/DTD/svg10.dtd">
<svg version="1.0" xmlns="http://www.w3.org/2000/svg"
 width="1106.000000pt" height="1200.000000pt" viewBox="0 0 1106.000000 1200.000000"
 preserveAspectRatio="xMidYMid meet">

<g transform="translate(0.000000,1200.000000) scale(0.100000,-0.100000)"
fill="#000000" stroke="none">
<path d="M4920 11989 c-68 -11 -120 -28 -120 -39 0 -4 7 -27 15 -50 23 -64 21
-70 -25 -70 -22 0 -55 -6 -73 -13 -30 -13 -89 -72 -113 -113 -10 -16 -14 -17
-38 -6 -16 7 -62 17 -104 23 -63 9 -80 15 -103 40 -23 25 -35 29 -77 29 -53 0
-182 -35 -182 -49 0 -5 34 -32 75 -60 l75 -50 108 1 c70 0 133 -5 178 -16 227
-54 565 -139 664 -166 63 -18 124 -34 135 -37 11 -3 29 -8 40 -13 11 -5 38
-11 60 -13 61 -7 194 -51 167 -55 -12 -2 -36 4 -54 12 -33 17 -62 21 -54 8 3
-4 28 -14 56 -22 28 -8 54 -18 57 -23 3 -4 13 -1 23 8 10 9 27 15 37 13 15 -3
13 -7 -11 -19 -17 -10 -24 -19 -18 -23 11 -7 52 13 52 26 0 8 67 -10 95 -25
11 -6 26 -10 33 -9 7 2 22 -4 34 -13 13 -8 32 -15 45 -15 12 0 24 -4 28 -9 3
-5 19 -12 36 -16 24 -5 29 -11 24 -26 -5 -16 -2 -18 23 -13 25 5 31 2 37 -15
7 -23 40 -45 54 -36 5 3 12 -4 16 -15 3 -11 14 -20 23 -20 10 0 23 -9 30 -21
10 -15 20 -19 36 -15 16 4 29 -1 45 -18 27 -28 24 -54 -7 -79 -12 -10 -20 -23
-17 -28 4 -5 -4 -9 -17 -9 -22 -1 -22 -2 8 -28 56 -49 234 -252 303 -345 69
-94 341 -492 341 -500 0 -3 18 -32 40 -65 22 -33 40 -65 40 -71 0 -6 4 -11 8
-11 4 0 25 -31 45 -70 21 -38 42 -72 48 -75 5 -4 9 -15 9 -26 0 -10 5 -19 10
-19 11 0 80 -135 80 -157 0 -7 5 -13 10 -13 19 0 10 -17 -15 -28 -33 -15 -42
-15 -27 0 20 20 14 25 -28 24 -44 -1 -47 -14 -9 -33 18 -10 20 -13 7 -13 -10
0 -18 -6 -18 -14 0 -27 20 -28 50 -2 57 47 93 43 103 -12 2 -15 19 -97 36
-182 55 -268 111 -670 135 -965 38 -467 41 -532 41 -1020 0 -329 -5 -565 -14
-690 -8 -104 -14 -202 -14 -217 l-1 -28 -278 0 -278 0 12 -25 11 -25 337 0
c185 0 600 -3 923 -7 l586 -6 6 -25 c3 -13 3 -27 0 -31 -4 -3 -413 -8 -910
-11 l-904 -5 19 -25 19 -25 900 -3 901 -4 0 -34 0 -34 -398 0 c-219 0 -615 -3
-879 -7 l-481 -6 11 -24 10 -23 397 0 c218 0 613 -3 878 -7 l482 -6 0 -27 c0
-27 0 -27 -92 -34 -143 -10 -1299 -7 -1338 4 -19 5 -116 14 -215 20 -248 14
-263 16 -270 43 -7 26 -26 95 -54 190 -12 40 -18 80 -14 98 6 30 -4 38 -25 17
-60 -60 -481 -118 -852 -118 -218 0 -240 3 -240 32 0 18 -5 20 -31 14 -17 -3
-40 -6 -50 -6 -17 0 -19 -8 -19 -78 0 -220 -54 -431 -148 -582 -70 -112 -217
-230 -285 -230 -19 0 -154 64 -172 81 -17 16 -25 9 -13 -11 18 -28 1 -37 -23
-11 -15 16 -24 19 -34 11 -13 -11 -26 0 -38 33 -4 9 -17 18 -29 18 -73 4 -98
17 -98 50 0 11 -4 19 -9 19 -17 0 -35 104 -22 128 15 28 14 33 -4 26 -9 -4
-15 0 -15 10 0 9 5 16 10 16 6 0 10 9 10 21 0 12 4 18 11 13 16 -9 30 18 18
33 -8 9 -15 9 -29 0 -11 -6 -22 -8 -26 -4 -8 8 12 32 26 32 6 0 9 5 8 10 -2 6
-6 9 -10 8 -11 -4 -10 15 1 21 5 3 2 38 -6 78 -19 94 -23 128 -25 211 -1 37
-4 67 -8 67 -3 0 -15 -21 -25 -47 -11 -26 -30 -63 -43 -82 -16 -23 -20 -36
-12 -41 7 -4 8 -14 1 -31 l-10 -24 -1 25 c0 21 -5 17 -25 -24 -13 -27 -21 -55
-18 -62 3 -8 0 -14 -7 -14 -6 0 -8 5 -4 12 4 7 3 8 -5 4 -8 -5 -10 -19 -6 -36
3 -16 2 -31 -4 -35 -6 -3 -11 2 -11 12 -1 10 -10 0 -21 -24 -12 -23 -29 -45
-40 -48 -27 -9 -80 -80 -73 -99 3 -9 1 -16 -6 -16 -6 0 -8 6 -4 13 5 8 4 9 -4
2 -24 -22 -41 -124 -37 -222 7 -204 89 -368 315 -628 74 -85 205 -216 241
-241 21 -14 41 -36 45 -48 8 -24 73 -85 92 -86 7 0 11 -4 7 -10 -3 -5 10 -27
30 -48 19 -22 35 -44 35 -50 0 -6 6 -17 14 -24 8 -8 24 -34 36 -59 12 -24 34
-66 48 -94 14 -27 26 -57 27 -66 1 -10 9 -24 18 -34 25 -24 21 -42 -10 -50
-39 -9 -545 5 -560 17 -6 5 -14 21 -18 36 -3 15 -11 44 -16 65 l-10 37 -89 0
-90 0 0 40 0 40 80 0 c78 0 79 0 71 22 -7 21 -16 23 -85 26 l-76 3 0 -102 0
-102 -97 7 c-54 3 -133 9 -175 13 l-78 6 0 1448 c0 797 2 1449 6 1449 3 0 36
-13 73 -29 93 -39 206 -61 310 -60 80 1 84 2 51 13 -37 12 -105 42 -130 57 -8
5 -26 14 -40 19 -14 6 -34 14 -45 19 -11 5 -28 12 -37 15 -10 3 -18 15 -18 26
0 11 -5 20 -10 20 -12 0 -3 -48 13 -67 15 -21 -7 -15 -33 7 -13 11 -27 20 -32
20 -12 0 -10 -28 4 -32 6 -2 8 -10 4 -16 -5 -9 -16 -3 -38 18 -23 24 -33 28
-44 19 -7 -6 -19 -7 -26 -3 -7 5 -21 9 -32 10 -11 0 -22 6 -24 13 -3 9 -7 9
-18 0 -11 -9 -15 -8 -20 5 -3 9 -14 16 -23 16 -9 0 -28 8 -42 18 -15 9 -44 29
-65 43 -109 73 -253 245 -324 387 -23 46 -44 82 -46 79 -2 -2 9 -123 26 -268
32 -291 36 -334 80 -854 38 -450 70 -931 70 -1052 l0 -93 -30 0 -30 0 0 -585
0 -585 -27 0 c-45 0 -458 62 -463 70 -3 4 -27 10 -55 14 -27 4 -58 9 -67 12
-17 5 -18 76 -18 1311 0 1239 1 1305 18 1298 75 -29 142 -46 219 -55 74 -9
102 -8 169 5 43 9 83 20 87 24 23 22 -56 726 -127 1147 -14 83 -33 211 -41
285 -18 155 -25 186 -35 169 -4 -6 -16 14 -28 47 -11 32 -29 83 -40 113 -59
163 -134 449 -168 644 -33 194 -43 303 -40 479 2 97 1 176 0 174 -7 -6 -36
-142 -36 -166 0 -15 -7 -25 -19 -28 -16 -5 -18 -11 -13 -42 7 -33 6 -35 -9
-22 -15 12 -17 11 -17 -3 0 -9 5 -16 10 -16 6 0 10 -7 10 -16 0 -8 -4 -13 -9
-10 -10 7 -37 -53 -33 -71 2 -7 -2 -13 -8 -13 -5 0 -10 5 -10 12 0 6 -2 9 -5
6 -3 -2 0 -19 6 -37 9 -26 9 -35 -1 -41 -7 -4 -10 -12 -6 -18 3 -5 0 -22 -8
-37 -14 -26 -10 -78 4 -55 5 8 10 7 17 -2 16 -19 -28 -73 -54 -66 -15 4 -18
-1 -18 -40 1 -31 6 -48 19 -57 17 -13 17 -15 -1 -39 -10 -14 -25 -26 -33 -26
-13 0 -13 -2 -1 -9 13 -8 17 -69 22 -286 0 -11 -3 -35 -7 -52 -5 -26 -3 -33 9
-33 12 0 16 -11 16 -42 1 -84 13 -168 24 -168 8 0 7 -3 -1 -9 -15 -9 -7 -81 9
-81 14 0 11 -28 -5 -37 -14 -8 -36 -46 -36 -60 0 -4 5 0 11 10 5 9 14 17 19
17 11 0 7 -130 -3 -148 -4 -5 -1 -38 7 -71 14 -60 12 -101 -5 -101 -5 0 -9 25
-9 55 0 43 -3 55 -15 55 -12 0 -15 -7 -10 -32 15 -84 12 -141 -9 -174 -14 -23
-26 -31 -38 -28 -14 4 -18 -1 -18 -20 0 -32 17 -43 25 -16 9 29 35 25 35 -5 0
-16 -6 -25 -15 -25 -18 0 -18 -5 -5 -30 15 -28 1 -70 -26 -80 -13 -5 -24 -15
-24 -21 0 -6 -7 -8 -16 -5 -8 3 -12 2 -9 -4 3 -6 14 -10 23 -10 10 0 3 -7 -15
-16 -18 -9 -33 -20 -33 -25 0 -15 21 -21 35 -9 23 19 19 -12 -5 -40 -11 -13
-20 -31 -20 -41 0 -10 -5 -30 -11 -46 -10 -27 -11 -27 -24 -9 -14 18 -15 18
-21 1 -4 -10 -2 -25 3 -34 7 -12 8 -23 1 -35 -7 -12 -7 -21 1 -29 16 -16 14
-27 -6 -27 -13 0 -14 -3 -5 -12 7 -7 12 -19 12 -28 0 -9 14 -27 31 -39 21 -16
27 -26 20 -31 -9 -5 -7 -10 4 -20 13 -11 13 -15 3 -22 -9 -6 -5 -8 12 -6 23 3
25 0 24 -32 0 -34 17 -65 30 -53 3 4 6 -9 7 -28 0 -19 3 -28 6 -21 7 18 25 15
22 -5 -4 -40 2 -53 21 -53 13 0 20 -7 20 -20 0 -11 -4 -20 -8 -20 -5 0 -17 9
-27 20 -10 11 -23 20 -28 20 -6 0 -41 33 -79 73 -185 194 -398 602 -475 912
-14 55 -26 101 -28 103 -1 1 -40 -15 -86 -37 -152 -71 -359 -121 -499 -121
l-68 0 -6 -32 c-3 -18 -9 -181 -12 -363 -20 -999 130 -2040 432 -3003 25 -79
43 -146 41 -148 -5 -6 -383 105 -570 166 -148 49 -148 49 -156 27 -5 -12 -106
-312 -225 -667 l-218 -645 -389 -344 c-214 -190 -386 -347 -384 -350 5 -4 888
-39 1034 -40 l54 -1 -6 -486 -5 -486 31 29 c18 16 178 162 357 323 179 161
332 300 341 309 14 13 22 78 44 361 14 190 28 350 30 356 2 7 62 -3 172 -28
92 -21 278 -60 413 -86 l245 -48 110 -161 c663 -970 1533 -1695 2620 -2183
l160 -72 80 33 c111 44 439 203 565 273 937 521 1637 1174 2236 2085 l69 105
190 38 c105 21 233 49 285 62 52 13 97 20 100 16 3 -5 18 -170 34 -367 15
-197 30 -361 32 -365 3 -4 171 -158 374 -342 l369 -335 -6 484 -6 483 64 6
c35 3 219 10 409 16 190 6 409 13 487 17 l141 6 -362 321 c-199 177 -378 335
-397 352 -35 30 -37 37 -219 695 -100 365 -184 666 -186 668 -1 1 -31 -6 -66
-17 -35 -11 -157 -46 -273 -77 -115 -31 -217 -59 -226 -61 -14 -4 -11 13 17
103 213 672 349 1434 405 2268 14 198 15 893 2 1020 l-8 80 -100 7 c-285 19
-543 122 -708 283 -58 57 -58 57 -40 79 84 95 179 317 189 441 4 58 3 66 -12
63 -24 -4 -29 19 -6 31 18 9 19 15 9 48 -6 21 -11 65 -12 99 -1 33 -4 65 -7
70 -3 5 -6 34 -6 64 0 30 -8 84 -18 120 -9 36 -18 85 -19 110 -1 51 -11 74
-29 67 -8 -3 -13 5 -13 24 0 21 3 26 9 17 6 -8 7 4 3 30 -5 33 -4 42 8 42 8 0
18 -11 21 -25 4 -14 11 -25 16 -25 6 0 10 -8 10 -18 0 -11 9 -27 20 -37 11
-10 20 -23 20 -30 0 -15 49 -57 59 -51 5 3 19 33 31 66 20 53 22 74 18 164 -5
108 -3 103 -69 173 -14 16 -28 36 -32 46 -3 9 -13 17 -22 17 -8 0 -15 9 -15
20 0 11 -3 19 -7 18 -10 -3 -53 34 -53 45 0 12 -58 81 -112 134 -26 25 -45 49
-43 54 3 4 -13 26 -35 48 -22 22 -40 44 -40 50 0 6 -9 15 -20 21 -19 10 -19 9
-5 -31 8 -22 31 -71 51 -107 65 -121 107 -297 75 -316 -10 -7 -21 16 -21 44 0
25 -48 62 -71 55 -10 -4 -28 -1 -39 5 -12 6 -30 13 -41 15 -11 2 -34 11 -51
20 -17 8 -43 15 -57 15 -15 0 -42 11 -61 24 -31 21 -36 22 -47 7 -10 -14 -14
-14 -33 7 -29 30 -33 28 -25 -15 6 -31 4 -35 -8 -25 -11 9 -18 8 -32 -8 -28
-31 -48 -26 -40 10 6 28 4 30 -20 30 -19 0 -26 4 -22 14 4 10 -5 14 -34 14
-31 1 -39 -3 -39 -18 0 -10 -6 -20 -12 -22 -9 -3 -8 -9 5 -22 9 -10 17 -24 17
-31 0 -8 16 -29 35 -48 46 -45 44 -65 -8 -106 -18 -14 -19 -12 -16 30 3 39 1
44 -19 47 -15 2 -22 -2 -22 -14 0 -10 -8 -26 -17 -37 -17 -18 -17 -19 1 -32
17 -13 17 -15 -1 -47 -10 -18 -24 -37 -30 -41 -9 -5 -11 -25 -6 -67 6 -57 -4
-90 -27 -90 -13 0 -18 36 -8 55 8 13 7 16 -3 13 -7 -2 -22 -26 -32 -51 -19
-45 -19 -48 -2 -67 16 -18 16 -18 -4 -13 -16 4 -21 1 -21 -15 0 -11 6 -22 13
-25 9 -3 9 -8 -3 -21 -10 -13 -23 -17 -47 -13 -37 6 -40 -1 -18 -42 18 -35 10
-45 -20 -25 -25 16 -37 8 -49 -33 -4 -13 -12 -23 -18 -23 -6 0 -8 -10 -5 -21
3 -12 0 -30 -6 -40 -13 -21 -47 -26 -47 -7 0 7 -7 2 -17 -11 -13 -20 -14 -27
-3 -44 11 -18 9 -23 -11 -38 -13 -10 -33 -19 -44 -21 -12 -2 -20 -11 -20 -21
0 -11 -10 -27 -23 -37 -23 -19 -29 -46 -11 -52 16 -5 -7 -58 -26 -58 -8 0 -15
-9 -15 -19 0 -11 -11 -33 -25 -49 -14 -17 -25 -35 -25 -41 0 -6 -4 -11 -10
-11 -5 0 -10 14 -10 30 0 38 -15 38 -35 0 -19 -37 -28 -33 -59 28 -77 154
-143 496 -152 782 -8 264 -26 328 -190 700 -13 30 -29 62 -34 70 -5 8 -41 78
-80 155 -40 77 -78 144 -86 148 -8 4 -14 14 -14 21 0 18 -53 85 -67 86 -7 0
-13 4 -13 9 0 12 -69 82 -103 104 -14 9 -29 28 -33 42 -5 22 -20 30 -46 26 -4
0 -17 16 -29 37 -13 20 -28 42 -35 49 -6 6 -21 37 -34 68 -19 46 -21 60 -11
81 6 14 11 38 11 54 0 25 -7 33 -47 52 l-48 23 -12 70 c-16 95 -37 143 -87
190 -29 27 -50 60 -66 103 -20 56 -28 66 -69 86 -74 38 -287 74 -322 56 -14
-8 -19 -7 -19 1 0 8 -14 10 -45 6 -25 -4 -47 -2 -50 3 -4 6 -9 8 -13 6 -4 -2
-27 0 -52 4 -29 5 -50 4 -57 -2 -9 -7 -13 -7 -13 1 0 6 -13 11 -28 11 -16 0
-51 6 -78 14 -59 18 -444 56 -540 55 -38 -1 -94 -5 -124 -10z m55 -49 c3 -5 1
-10 -4 -10 -6 0 -11 5 -11 10 0 6 2 10 4 10 3 0 8 -4 11 -10z m369 -34 c98
-15 189 -29 202 -32 33 -8 20 -24 -21 -24 -21 0 -35 -6 -39 -16 -4 -12 -14
-14 -36 -9 -19 4 -30 3 -30 -4 0 -6 5 -11 10 -11 6 0 10 -4 10 -9 0 -5 -26 -8
-57 -5 l-58 4 55 -14 c30 -7 66 -19 80 -25 22 -10 20 -11 -20 -6 -55 6 -137
24 -168 36 -13 5 -34 9 -47 9 -13 0 -27 5 -31 11 -4 8 0 9 15 4 12 -4 21 -2
21 4 0 6 -11 11 -24 11 -13 0 -29 7 -36 15 -7 8 -22 15 -33 15 -11 0 -17 3
-14 7 7 7 -39 34 -63 37 -23 2 -61 26 -56 34 6 10 121 -1 340 -32z m276 -46
c0 -5 -5 -10 -11 -10 -5 0 -7 5 -4 10 3 6 8 10 11 10 2 0 4 -4 4 -10z m-463
-36 c-3 -3 -12 -4 -19 -1 -8 3 -5 6 6 6 11 1 17 -2 13 -5z m363 -4 c0 -5 -2
-10 -4 -10 -3 0 -8 5 -11 10 -3 6 -1 10 4 10 6 0 11 -4 11 -10z m1 -30 c5 0 9
-4 9 -10 0 -14 -13 -12 -36 6 -17 14 -17 15 -1 10 10 -3 23 -6 28 -6z m-548
-17 c-7 -2 -19 -2 -25 0 -7 3 -2 5 12 5 14 0 19 -2 13 -5z m157 -22 c30 -6 76
-19 101 -27 26 -8 60 -14 75 -14 16 0 37 -7 47 -14 9 -7 28 -11 41 -9 13 3 36
-3 52 -13 15 -10 43 -20 62 -21 19 -1 40 -10 48 -20 19 -25 13 -58 -10 -58
-10 0 -22 -7 -25 -15 -5 -11 -25 -15 -84 -17 -42 0 -75 2 -73 5 2 4 -24 7 -57
7 -34 0 -71 4 -82 9 -11 5 -29 11 -40 12 -93 14 -138 24 -152 35 -8 8 -32 15
-52 16 -20 2 -43 4 -51 4 -8 1 -21 7 -29 13 -7 5 -21 11 -30 11 -42 3 -49 6
-54 25 -3 13 -10 18 -21 14 -25 -9 -19 19 7 36 12 8 27 15 34 16 6 1 18 6 26
10 23 13 204 10 267 -5z m-595 -69 c-16 -1 -49 -10 -73 -18 -23 -9 -48 -14
-55 -11 -20 7 106 43 133 37 24 -4 23 -5 -5 -8z m40 -32 c-3 -5 -11 -10 -16
-10 -6 0 -7 5 -4 10 3 6 11 10 16 10 6 0 7 -4 4 -10z m1025 -10 c0 -5 -4 -10
-10 -10 -5 0 -10 5 -10 10 0 6 5 10 10 10 6 0 10 -4 10 -10z m35 -39 c3 -7 2
-17 -1 -20 -4 -3 -9 0 -12 8 -3 10 -9 8 -23 -10 -14 -19 -19 -20 -19 -7 0 30
11 47 31 45 10 -1 21 -8 24 -16z m521 -346 c20 -14 51 -38 68 -55 17 -16 50
-47 74 -70 23 -22 42 -46 41 -52 0 -10 -2 -10 -6 0 -2 6 -8 12 -12 12 -5 0
-36 26 -71 58 -34 31 -81 74 -104 95 -47 43 -43 48 10 12z m394 -57 c27 -43
92 -170 88 -173 -6 -7 -128 164 -128 179 0 23 23 19 40 -6z m-460 -24 c0 -8
-4 -12 -10 -9 -5 3 -10 10 -10 16 0 5 5 9 10 9 6 0 10 -7 10 -16z m60 -34 c0
-5 -2 -10 -4 -10 -3 0 -8 5 -11 10 -3 6 -1 10 4 10 6 0 11 -4 11 -10z m246
-117 c-7 -7 -26 7 -26 19 0 6 6 6 15 -2 9 -7 13 -15 11 -17z m40 -40 c-7 -7
-26 7 -26 19 0 6 6 6 15 -2 9 -7 13 -15 11 -17z m-166 -63 c0 -5 -2 -10 -4
-10 -3 0 -8 5 -11 10 -3 6 -1 10 4 10 6 0 11 -4 11 -10z m60 -80 c0 -5 -4 -10
-9 -10 -6 0 -13 5 -16 10 -3 6 1 10 9 10 9 0 16 -4 16 -10z m1915 -830 c-3 -5
-11 -10 -16 -10 -6 0 -7 5 -4 10 3 6 11 10 16 10 6 0 7 -4 4 -10z m648 -201
c3 -13 1 -19 -6 -16 -15 5 -22 37 -9 37 5 0 12 -9 15 -21z m-588 -9 c3 -5 1
-10 -4 -10 -6 0 -11 5 -11 10 0 6 2 10 4 10 3 0 8 -4 11 -10z m-85 -80 c0 -5
-4 -10 -10 -10 -5 0 -10 5 -10 10 0 6 5 10 10 10 6 0 10 -4 10 -10z m720 6 c0
-3 -4 -8 -10 -11 -5 -3 -10 -1 -10 4 0 6 5 11 10 11 6 0 10 -2 10 -4z m0 -80
c0 -3 -4 -8 -10 -11 -5 -3 -10 -1 -10 4 0 6 5 11 10 11 6 0 10 -2 10 -4z
m-986 -334 c5 -8 -34 -76 -40 -69 -2 2 1 20 7 40 9 35 22 46 33 29z m16 -74
c0 -13 -5 -30 -10 -38 -7 -11 -10 -5 -10 23 0 20 5 37 10 37 6 0 10 -10 10
-22z m-54 -55 c-10 -10 -19 5 -10 18 6 11 8 11 12 0 2 -7 1 -15 -2 -18z m-339
-375 c-3 -7 -5 -2 -5 12 0 14 2 19 5 13 2 -7 2 -19 0 -25z m-4717 -559 c0 -3
-7 -12 -15 -19 -13 -11 -15 -7 -15 26 1 36 2 38 15 20 8 -11 15 -23 15 -27z
m4760 -103 c11 -14 8 -16 -19 -16 -27 0 -31 4 -31 25 0 22 3 24 18 16 10 -5
24 -17 32 -25z m130 -121 l34 -35 -102 0 -102 0 0 35 0 35 68 0 c65 0 70 -2
102 -35z m130 -130 l34 -35 -167 0 -167 0 0 35 0 35 133 0 133 0 34 -35z m120
-132 l22 -28 -89 -6 c-48 -4 -148 -7 -220 -8 l-133 -1 0 35 0 35 199 0 200 0
21 -27z m108 -136 l22 -32 -266 -3 c-147 -1 -269 -1 -270 1 -2 2 -7 18 -10 35
l-6 32 253 0 254 0 23 -33z m97 -133 c9 -14 15 -27 13 -29 -2 -1 -144 -6 -315
-9 l-313 -7 0 35 0 36 299 0 299 0 17 -26z m84 -133 c12 -16 21 -32 21 -35 0
-3 -162 -6 -360 -6 l-360 0 0 35 0 35 339 0 340 0 20 -29z m-208 -108 l275 -6
17 -29 16 -28 -233 0 c-128 0 -308 -3 -399 -7 l-167 -6 0 41 0 42 108 0 c59 0
231 -3 383 -7z m-5286 -113 c3 -5 1 -10 -4 -10 -6 0 -11 5 -11 10 0 6 2 10 4
10 3 0 8 -4 11 -10z m5648 -55 l17 -35 -435 0 -435 0 0 35 0 35 418 0 418 0
17 -35z m-59 -102 c105 -6 107 -7 122 -35 l15 -28 -323 0 c-178 0 -387 -3
-465 -7 l-143 -6 0 41 0 42 343 0 c189 0 392 -3 451 -7z m175 -164 c6 -18 11
-34 11 -35 0 -2 -220 -4 -490 -4 l-490 0 0 35 0 35 479 0 479 0 11 -31z m48
-134 l11 -35 -391 0 c-216 0 -449 -3 -519 -7 l-128 -6 0 41 0 42 508 0 509 0
10 -35z m-452 -105 l483 0 11 -31 c6 -18 11 -34 11 -35 0 -2 -245 -4 -545 -4
l-545 0 0 24 c0 50 9 59 58 52 25 -3 262 -6 527 -6z m530 -161 c4 -17 5 -32 3
-33 -7 -7 -1257 -13 -1253 -6 2 3 30 15 61 26 31 10 59 25 61 32 4 9 126 12
563 12 l558 0 7 -31z m-4038 -401 c-3 -8 -6 -5 -6 6 -1 11 2 17 5 13 3 -3 4
-12 1 -19z m8 -108 c7 -11 -11 -40 -25 -40 -4 0 -5 11 -2 25 5 26 16 32 27 15z
m4115 -35 l0 -35 -573 0 -573 0 -34 35 -34 35 607 0 607 0 0 -35z m-4217 -35
c-3 -11 -7 -20 -9 -20 -2 0 -4 9 -4 20 0 11 4 20 9 20 5 0 7 -9 4 -20z m3875
-67 l352 -6 0 -27 0 -27 -257 -6 c-141 -4 -385 -7 -543 -7 l-287 0 -16 40 -15
40 206 0 c114 0 366 -3 560 -7z m-4084 -103 c-4 -16 -2 -36 3 -42 6 -7 21 -44
33 -82 21 -63 68 -169 105 -237 65 -118 125 -234 125 -241 0 -15 -15 -7 -35
19 -11 15 -37 44 -57 66 -21 22 -38 43 -38 48 0 5 -4 9 -10 9 -5 0 -10 6 -10
13 0 8 -9 22 -19 31 -11 10 -23 31 -26 47 -4 16 -13 29 -21 29 -8 0 -14 8 -14
17 0 30 -24 83 -38 83 -10 0 -12 12 -7 54 5 36 3 56 -4 61 -7 4 -9 20 -5 41 4
23 2 34 -6 34 -22 0 5 78 27 80 1 0 0 -13 -3 -30z m4436 -65 l0 -35 -509 0
-508 0 -25 38 -25 37 534 -3 533 -2 0 -35z m-202 -102 l202 -6 0 -29 0 -28
-147 0 c-82 0 -292 -3 -469 -7 l-320 -6 -22 37 c-12 20 -22 39 -22 42 0 6 549
5 778 -3z m-2608 -73 c0 -5 -4 -10 -10 -10 -5 0 -10 -8 -10 -19 0 -19 -99
-111 -119 -111 -6 0 -18 -11 -27 -25 -9 -14 -38 -38 -65 -53 -27 -15 -49 -30
-49 -35 0 -4 -11 -12 -25 -17 -14 -5 -25 -15 -25 -22 0 -7 -12 -19 -27 -26
-16 -7 -55 -37 -88 -67 -87 -80 -98 -76 -33 13 101 138 279 294 403 353 66 32
75 34 75 19z m2800 -95 l0 -35 -430 0 -429 0 -16 30 c-8 16 -15 31 -15 35 0 3
200 5 445 5 l445 0 0 -35z m-2362 -93 c12 -8 22 -11 22 -7 0 4 6 2 14 -4 8 -6
20 -10 27 -9 10 2 13 -6 11 -24 -3 -27 -1 -28 50 -29 30 -1 41 -4 25 -6 -42
-6 -27 -27 26 -37 39 -8 47 -13 52 -36 3 -15 17 -38 31 -51 16 -15 21 -25 13
-30 -8 -5 -5 -14 9 -30 17 -18 19 -25 10 -36 -9 -11 -9 -16 2 -23 10 -6 12
-28 7 -97 -7 -96 -18 -144 -49 -213 -11 -25 -28 -63 -38 -86 -27 -60 -156
-375 -164 -401 -5 -14 -15 -23 -28 -23 -20 0 -20 1 -3 26 15 23 15 27 1 43
-22 24 -20 41 3 41 11 0 23 5 27 12 5 8 2 9 -9 5 -22 -8 -22 7 0 39 13 21 14
33 5 72 -6 29 -7 51 -1 57 5 5 9 -1 9 -18 0 -15 3 -27 8 -27 4 0 7 13 7 30 0
16 4 29 10 29 10 -1 23 27 24 54 1 25 -17 21 -22 -5 -3 -20 -5 -21 -11 -6 -8
18 19 56 31 44 3 -3 12 6 20 20 16 33 16 35 -1 28 -18 -7 -47 23 -40 41 4 8
14 15 24 15 23 0 42 24 34 44 -6 17 -34 23 -34 7 0 -5 -9 -11 -20 -14 -17 -4
-20 0 -20 28 0 41 18 55 36 30 16 -22 23 -17 30 19 3 19 0 26 -11 26 -9 0 -15
9 -15 21 0 14 5 19 14 16 18 -7 11 16 -17 56 -19 28 -17 57 3 57 8 0 10 29 4
101 -6 95 -6 101 12 99 35 -4 64 0 64 8 0 5 -24 9 -52 9 -67 1 -108 -21 -108
-58 0 -28 -20 -42 -45 -33 -10 4 -15 0 -15 -15 0 -15 -5 -21 -17 -19 -10 2
-19 -5 -21 -16 -2 -11 -15 -31 -28 -45 -13 -14 -22 -32 -19 -39 3 -8 2 -19 -2
-25 -4 -7 -9 -21 -10 -32 -5 -34 -12 -47 -23 -40 -9 6 -33 -36 -35 -61 0 -7
-10 -20 -22 -30 -15 -14 -26 -43 -38 -103 -9 -46 -25 -100 -35 -120 -23 -46
-56 -202 -65 -307 l-7 -81 -56 -7 c-32 -3 -198 -9 -370 -13 l-313 -6 5 24 c16
71 46 267 46 304 0 74 19 148 60 230 109 221 205 339 373 459 71 51 225 130
272 141 17 4 48 13 70 21 91 33 227 36 273 6z m2255 -9 l98 -6 -6 -26 c-4 -14
-7 -27 -8 -27 -1 -1 -178 -4 -393 -6 l-391 -4 -12 31 c-6 17 -11 34 -11 38 0
9 593 9 723 0z m-3573 -53 c0 -13 -11 -13 -30 0 -12 8 -11 10 8 10 12 0 22 -4
22 -10z m1410 -90 c0 -5 -4 -10 -10 -10 -5 0 -10 5 -10 10 0 6 5 10 10 10 6 0
10 -4 10 -10z m2236 -12 c-3 -13 -6 -29 -6 -35 0 -10 -78 -13 -355 -13 l-355
0 -10 26 c-6 14 -10 30 -10 35 0 5 148 9 371 9 l371 0 -6 -22z m-25 -140 l-7
-33 -329 0 -329 0 -7 33 -6 32 342 0 342 0 -6 -32z m-48 -115 c-14 -3 -23 -12
-23 -23 0 -32 -60 -40 -316 -40 l-242 0 -6 23 c-13 49 -25 47 302 46 169 -1
297 -4 285 -6z m-247 -138 c-11 -8 -25 -15 -31 -15 -7 0 -27 -8 -45 -17 -23
-11 -69 -18 -136 -21 -100 -4 -101 -4 -107 19 -14 50 -18 49 166 49 153 -1
170 -2 153 -15z m-964 -346 c68 -15 168 -60 192 -87 11 -12 17 -22 14 -22 -3
0 -94 -11 -202 -25 -108 -14 -200 -25 -205 -25 -5 0 -11 15 -15 32 -5 24 -2
36 9 44 14 11 14 12 0 18 -9 3 -13 10 -10 16 3 6 -1 13 -9 16 -47 18 15 42
111 43 34 1 86 -4 115 -10z m-222 -506 c0 -21 3 -68 6 -104 l7 -66 -149 -12
c-82 -7 -175 -15 -208 -18 l-58 -6 5 -55 c3 -30 7 -55 9 -56 2 -2 90 5 196 13
107 9 195 14 196 11 2 -3 7 -49 10 -102 7 -90 6 -98 -11 -98 -10 0 -90 -7
-178 -15 -88 -8 -169 -15 -180 -15 -18 0 -20 -6 -17 -52 2 -29 8 -57 12 -62 5
-4 97 -1 209 9 111 10 204 16 206 13 3 -2 8 -49 11 -104 l7 -100 -359 -30
c-198 -17 -362 -28 -365 -25 -6 6 -80 843 -75 848 3 3 638 60 689 62 36 1 37
0 37 -36z m-2900 -13 c85 -13 239 -50 244 -59 3 -4 0 -54 -6 -112 l-11 -106
-85 30 c-156 53 -302 47 -302 -13 0 -24 19 -34 143 -76 162 -55 234 -109 258
-196 14 -55 5 -147 -21 -197 -76 -151 -365 -191 -673 -94 l-79 24 7 77 c10
129 14 145 33 136 89 -39 196 -67 278 -72 103 -5 134 5 134 43 0 29 -21 41
-140 80 -201 66 -264 130 -263 270 0 111 46 187 141 235 78 39 210 50 342 30z
m2110 -25 c0 -3 -64 -139 -142 -303 l-143 -297 0 -135 0 -135 -155 -6 c-85 -4
-156 -6 -157 -5 -1 0 -4 60 -8 131 l-8 130 -159 273 -160 273 -128 -173 c-71
-95 -125 -177 -122 -183 3 -5 71 -108 149 -227 79 -120 143 -220 143 -223 0
-7 -329 -4 -365 4 -27 5 -40 25 -125 180 l-95 174 -6 -139 c-4 -76 -7 -156 -8
-176 l-1 -38 -83 0 c-46 0 -119 3 -162 7 l-78 6 7 421 c4 232 10 424 14 427 4
3 78 4 166 1 l159 -5 -5 -163 -5 -164 103 162 103 161 183 -4 c101 -2 256 -3
344 -1 l161 4 69 -161 c38 -89 71 -161 74 -161 3 0 28 75 55 168 l50 167 110
6 c176 8 225 9 225 4z m-3156 -1030 c147 -19 274 -35 282 -35 12 0 14 -65 14
-402 l0 -402 -46 44 c-117 114 -353 395 -499 595 l-85 117 0 65 0 65 33 -6
c17 -3 153 -22 301 -41z m1022 -111 l91 -7 6 -210 c9 -274 9 -1217 0 -1217 -7
0 -110 76 -255 189 l-98 76 0 594 0 594 83 -7 c45 -3 123 -9 173 -12z m1460
-225 c68 -33 89 -76 87 -179 -1 -68 -54 -385 -66 -397 -2 -1 -25 9 -52 23 -42
22 -60 25 -115 21 -36 -2 -72 -7 -81 -11 -14 -6 -19 5 -33 61 -29 120 -46 236
-46 314 0 92 22 132 90 167 59 30 156 30 216 1z m-356 -191 c0 -7 7 -56 15
-108 13 -88 13 -96 -2 -105 -46 -27 -124 -112 -151 -163 -31 -59 -52 -138 -52
-197 0 -31 -7 -38 -79 -89 -43 -30 -101 -76 -130 -102 -30 -27 -56 -43 -60
-38 -11 11 -361 575 -361 580 0 2 115 4 255 4 l255 0 83 83 c99 99 227 175
227 135z m566 -46 c32 -21 86 -67 118 -103 l60 -64 252 -5 252 -5 -156 -282
c-86 -156 -160 -283 -165 -283 -5 0 -37 22 -71 49 -33 27 -98 72 -143 101 -76
47 -83 55 -83 84 0 48 -28 146 -55 192 -13 23 -45 61 -70 86 l-45 45 17 111
c9 62 20 112 23 112 4 0 33 -17 66 -38z m-244 -362 c97 -65 117 -195 45 -277
-97 -110 -258 -89 -318 42 -10 22 -19 55 -19 73 0 67 52 149 115 178 45 21
135 13 177 -16z m232 -191 c142 -80 278 -173 323 -222 69 -75 67 -149 -5 -229
-72 -80 -161 -99 -231 -49 -36 26 -158 186 -220 288 l-43 73 26 30 c27 32 46
87 46 133 0 15 3 27 6 27 4 0 47 -23 98 -51z m-534 -86 c8 -10 27 -32 43 -50
l30 -32 -53 -83 c-73 -116 -164 -229 -208 -256 -127 -79 -326 105 -257 238 29
57 141 146 310 249 l99 61 11 -54 c6 -30 17 -62 25 -73z m475 -315 c33 -45 61
-85 63 -88 1 -4 -19 -18 -45 -32 -157 -84 -351 -94 -525 -27 -43 17 -78 33
-78 35 0 4 67 92 115 151 20 24 21 24 64 8 97 -34 219 -28 301 16 19 10 37 18
40 18 3 0 32 -37 65 -81z"/>
<path d="M5195 11860 c3 -5 12 -10 20 -10 8 0 17 5 20 10 4 6 -5 10 -20 10
-15 0 -24 -4 -20 -10z"/>
<path d="M5303 11833 c9 -2 25 -2 35 0 9 3 1 5 -18 5 -19 0 -27 -2 -17 -5z"/>
<path d="M5368 11823 c6 -2 18 -2 25 0 6 3 1 5 -13 5 -14 0 -19 -2 -12 -5z"/>
<path d="M3850 11639 c-25 -16 -46 -34 -48 -39 -2 -6 -9 -10 -16 -10 -6 0 -33
-18 -60 -40 -26 -22 -51 -40 -55 -40 -4 0 -13 -11 -20 -24 -9 -15 -19 -22 -31
-19 -10 3 -21 0 -24 -6 -4 -6 0 -11 11 -11 17 -1 17 -2 -1 -15 -11 -8 -30 -15
-42 -15 -29 0 -40 -16 -15 -23 11 -2 42 8 71 25 58 33 198 77 246 78 l30 0 3
85 c1 47 1 85 -1 84 -2 0 -23 -14 -48 -30z"/>
<path d="M4117 11596 c-4 -9 -14 -16 -22 -16 -9 0 -13 -5 -10 -10 3 -6 17 -7
31 -4 13 3 24 2 24 -4 0 -10 -48 -23 -90 -23 -24 -1 -24 -1 -5 -15 18 -13 17
-14 -13 -14 -55 0 -35 -17 46 -39 93 -25 112 -26 112 -6 0 11 7 14 25 9 19 -5
25 -2 25 10 0 9 -6 16 -13 16 -9 0 -12 10 -9 30 4 28 2 30 -28 30 -27 0 -30 3
-25 20 3 11 2 20 -4 20 -5 0 -16 3 -24 6 -8 3 -17 -2 -20 -10z"/>
<path d="M3500 11371 c0 -5 -3 -18 -7 -28 -5 -16 -4 -16 14 2 20 20 21 35 2
35 -5 0 -9 -4 -9 -9z"/>
<path d="M4098 11355 c-3 -3 -41 -7 -84 -8 -62 -2 -91 -8 -134 -29 -30 -15
-67 -30 -82 -33 -16 -4 -28 -11 -28 -16 0 -5 -10 -13 -23 -18 -23 -9 -111 -65
-133 -86 -7 -5 -42 -28 -79 -50 -67 -40 -157 -119 -147 -130 3 -3 -4 -5 -16
-5 -11 0 -24 -4 -27 -10 -10 -16 -45 -12 -45 5 0 8 7 15 16 15 13 0 15 7 11
30 -5 23 -2 32 14 41 12 6 18 17 15 25 -3 7 0 17 7 21 11 7 37 68 37 88 0 4
-10 0 -22 -11 -18 -16 -20 -16 -15 -2 8 21 -3 31 -20 16 -21 -17 -22 -5 -1 15
10 9 18 13 18 7 0 -22 47 -10 58 15 11 24 11 25 -33 23 -25 -1 -45 -7 -45 -13
0 -10 -22 -27 -69 -51 -44 -23 -119 -104 -145 -157 -27 -52 -33 -130 -17 -202
5 -21 0 -45 -17 -84 -21 -45 -24 -64 -20 -125 5 -67 36 -156 56 -156 5 0 22
28 38 62 34 73 119 210 163 265 16 21 60 76 97 123 37 47 71 89 75 94 5 5 32
13 61 17 29 4 70 10 91 14 30 6 37 4 37 -9 0 -9 -5 -16 -11 -16 -6 0 -22 -9
-36 -20 -47 -37 -3 -21 160 59 89 43 176 83 192 89 68 25 203 61 250 67 72 10
97 29 93 68 -2 26 -7 32 -25 30 -15 -2 -23 3 -23 12 0 14 -23 18 -107 19 -13
0 -23 4 -23 8 0 9 -54 11 -62 3z m-793 -435 c3 -5 1 -10 -4 -10 -6 0 -11 5
-11 10 0 6 2 10 4 10 3 0 8 -4 11 -10z"/>
<path d="M3420 11320 c0 -5 5 -10 10 -10 6 0 10 5 10 10 0 6 -4 10 -10 10 -5
0 -10 -4 -10 -10z"/>
<path d="M5697 11276 c-6 -15 59 -51 67 -37 3 5 -8 14 -25 21 -22 10 -27 15
-17 21 10 7 9 9 -3 9 -9 0 -19 -6 -22 -14z"/>
<path d="M5815 11240 c3 -5 15 -10 25 -10 10 0 22 5 25 10 4 6 -7 10 -25 10
-18 0 -29 -4 -25 -10z"/>
<path d="M5885 11211 c-5 -9 54 -45 62 -37 5 5 -38 46 -48 46 -4 0 -10 -4 -14
-9z"/>
<path d="M5820 11200 c0 -5 4 -10 9 -10 6 0 13 5 16 10 3 6 -1 10 -9 10 -9 0
-16 -4 -16 -10z"/>
<path d="M6000 11161 c0 -5 7 -14 15 -21 16 -14 18 -10 9 14 -6 17 -24 22 -24
7z"/>
<path d="M5940 11120 c0 -5 5 -10 11 -10 5 0 7 5 4 10 -3 6 -8 10 -11 10 -2 0
-4 -4 -4 -10z"/>
<path d="M6060 11106 c0 -9 5 -16 10 -16 6 0 10 4 10 9 0 6 -4 13 -10 16 -5 3
-10 -1 -10 -9z"/>
<path d="M6020 11076 c0 -9 5 -16 10 -16 6 0 10 4 10 9 0 6 -4 13 -10 16 -5 3
-10 -1 -10 -9z"/>
<path d="M6139 11046 c7 -9 23 -16 35 -16 11 -1 32 -7 46 -15 35 -20 41 -18
31 8 -5 14 -17 22 -32 23 -13 1 -40 5 -59 9 -31 7 -33 6 -21 -9z"/>
<path d="M4380 10986 c-17 -8 -30 -9 -42 -2 -11 6 -38 6 -85 -3 -37 -7 -89
-15 -115 -18 -32 -3 -48 -10 -48 -19 0 -8 -7 -14 -15 -14 -23 0 -87 -35 -109
-59 -11 -12 -27 -21 -38 -21 -10 0 -18 -6 -18 -12 0 -7 -19 -31 -41 -53 -61
-59 -99 -114 -99 -144 0 -14 -9 -41 -20 -59 -11 -18 -20 -39 -20 -46 0 -7 -7
-19 -15 -26 -8 -7 -15 -25 -15 -40 0 -19 -9 -35 -27 -48 -23 -17 -25 -22 -14
-36 9 -11 10 -16 2 -16 -6 0 -11 -10 -11 -22 0 -29 -11 -43 -30 -43 -10 0 -14
-8 -12 -27 2 -23 -3 -30 -33 -42 -19 -8 -35 -22 -35 -30 0 -8 -6 -16 -12 -19
-9 -3 -8 -10 6 -26 46 -51 131 -13 197 89 18 28 38 50 44 50 12 0 25 -36 45
-130 16 -77 30 -110 46 -110 8 0 17 14 21 31 3 17 12 33 20 36 10 4 12 17 7
53 -5 40 -3 51 14 68 12 12 18 28 16 39 -7 24 43 162 67 189 10 11 19 26 19
33 0 13 113 123 190 185 110 89 135 122 186 244 20 50 11 68 -26 48z"/>
<path d="M5502 10719 c-65 -11 -124 -40 -144 -71 -11 -17 -25 -24 -44 -23 -37
1 -74 -22 -74 -46 0 -23 -13 -24 -30 -4 -21 25 -35 17 -69 -35 -38 -58 -51
-69 -51 -41 0 11 5 23 10 26 13 8 13 45 -1 45 -5 0 -16 -15 -24 -34 -16 -39
-35 -55 -35 -32 0 9 -4 16 -8 16 -15 0 -32 -24 -32 -46 0 -30 -20 -42 -21 -12
0 20 -3 18 -17 -12 -9 -19 -23 -39 -29 -43 -7 -4 -13 -21 -13 -37 0 -17 -3
-30 -6 -30 -12 0 -33 35 -34 54 0 11 -3 16 -7 12 -4 -4 -6 -26 -4 -50 2 -36
-1 -45 -15 -48 -15 -3 -18 -12 -15 -50 2 -33 -2 -49 -12 -55 -13 -6 -14 -17
-6 -57 7 -40 6 -53 -7 -67 -15 -16 -14 -23 10 -90 30 -84 31 -89 12 -89 -23 0
-28 -17 -13 -47 8 -15 12 -34 10 -41 -3 -7 1 -20 8 -29 19 -22 20 -123 2 -123
-26 0 -24 -30 6 -85 34 -62 40 -98 16 -89 -26 10 -17 -27 13 -55 27 -26 27
-26 5 -29 -22 -3 -33 -22 -14 -22 5 0 13 -9 16 -20 3 -11 12 -20 19 -20 15 0
44 -30 30 -30 -5 0 -15 -4 -22 -8 -17 -11 24 -90 53 -104 19 -8 19 -8 -1 -5
-35 7 -50 -8 -36 -35 27 -53 32 -78 17 -78 -36 0 6 -60 62 -89 14 -7 20 -17
17 -26 -5 -11 1 -15 23 -15 33 0 54 -16 46 -35 -2 -7 5 -16 16 -20 23 -7 28
-21 9 -28 -7 -2 6 -10 30 -17 23 -7 42 -19 42 -27 0 -8 6 -13 13 -12 22 4 47
-13 47 -32 0 -10 9 -23 20 -29 11 -6 20 -7 20 -3 0 4 5 2 12 -5 13 -13 58 -17
58 -4 0 4 4 13 9 21 7 11 13 10 35 -4 14 -10 26 -14 26 -11 0 4 9 2 20 -4 14
-7 20 -7 20 0 0 5 -3 10 -8 10 -12 0 -87 101 -115 155 -69 138 -97 338 -62
446 53 163 161 296 295 362 92 45 176 65 300 73 113 8 198 -13 295 -71 116
-70 214 -188 255 -306 70 -202 41 -348 -95 -484 -50 -49 -131 -116 -158 -130
-48 -24 -4 -46 49 -23 16 6 34 12 39 13 36 5 98 31 109 47 7 9 28 24 47 32 19
8 48 33 64 56 17 23 40 53 53 67 12 14 22 31 22 36 0 6 12 24 27 39 19 20 37
28 60 28 21 0 36 6 39 15 7 17 70 21 76 4 5 -15 43 3 43 20 0 8 14 18 32 23
39 10 67 46 51 65 -7 9 -7 17 1 27 10 11 8 17 -6 25 -14 8 -16 12 -5 22 6 7
12 22 12 33 0 18 -1 19 -20 1 -17 -16 -20 -16 -20 -2 0 9 5 19 10 22 18 11 11
35 -10 35 -13 0 -20 7 -20 20 0 11 7 20 15 20 23 0 18 34 -10 60 -14 13 -25
27 -25 31 0 4 20 10 45 13 28 5 45 12 45 21 0 24 -37 99 -64 130 -42 48 -46
53 -46 68 0 8 7 20 15 27 21 18 19 40 -5 40 -15 0 -22 9 -26 30 -4 17 -10 30
-14 30 -5 0 -18 16 -30 35 -19 30 -20 38 -8 52 11 15 10 16 -10 11 -16 -5 -25
-1 -29 10 -4 9 -2 17 5 20 14 4 -13 56 -72 137 -25 33 -97 137 -161 232 -175
259 -183 269 -244 277 -27 4 -53 11 -57 17 -3 6 -17 8 -29 5 -13 -3 -27 -2
-30 4 -3 5 -13 10 -22 10 -8 0 -28 9 -44 21 -27 19 -35 20 -74 10 -35 -9 -50
-8 -65 1 -18 11 -23 10 -31 -4 -8 -15 -12 -15 -41 -1 -24 12 -35 13 -49 5 -13
-8 -26 -9 -45 -2 -39 15 -161 20 -222 9z m533 -39 c3 -5 4 -10 1 -10 -2 0 -12
-3 -20 -6 -12 -5 -15 -2 -10 10 7 18 20 21 29 6z"/>
<path d="M5210 10604 c0 -8 5 -12 10 -9 6 3 10 10 10 16 0 5 -4 9 -10 9 -5 0
-10 -7 -10 -16z"/>
<path d="M4327 10562 c-10 -11 -26 -18 -36 -15 -10 2 -32 -8 -52 -23 -58 -48
-149 -138 -149 -149 0 -5 -11 -32 -25 -60 -14 -27 -23 -55 -21 -61 2 -6 0 -16
-6 -22 -6 -6 -13 -34 -15 -63 -3 -40 -10 -58 -28 -75 -14 -13 -25 -30 -25 -39
0 -8 -7 -15 -15 -15 -8 0 -15 -9 -15 -19 0 -11 -4 -23 -10 -26 -32 -20 16 -74
66 -75 27 0 32 -5 37 -29 5 -23 10 -28 26 -24 12 3 44 -12 89 -41 77 -51 115
-58 133 -25 6 13 13 91 15 188 5 170 22 281 55 356 10 22 21 61 24 88 4 26 11
50 16 53 15 9 10 61 -8 75 -15 13 -16 11 -10 -25 6 -35 5 -37 -7 -20 -8 11
-16 30 -18 43 -3 23 -3 23 -21 3z"/>
<path d="M8175 10139 c-10 -15 3 -25 16 -12 7 7 7 13 1 17 -6 3 -14 1 -17 -5z"/>
<path d="M8220 10109 c0 -5 5 -7 10 -4 6 3 10 8 10 11 0 2 -4 4 -10 4 -5 0
-10 -5 -10 -11z"/>
<path d="M3253 10026 c-71 -33 -103 -82 -103 -156 0 -31 5 -61 12 -68 19 -19
46 -14 54 10 11 36 57 74 97 82 53 10 72 41 57 95 -9 36 -33 61 -57 61 -4 0
-31 -11 -60 -24z"/>
<path d="M2977 10034 c-4 -4 -7 -14 -7 -23 0 -11 3 -12 11 -4 6 6 10 16 7 23
-2 6 -7 8 -11 4z"/>
<path d="M8125 9780 c-7 -12 2 -30 16 -30 5 0 9 9 9 20 0 21 -15 27 -25 10z"/>
<path d="M3577 9773 c-18 -3 -31 -13 -38 -29 -9 -25 -29 -25 -29 0 0 14 -30
26 -67 26 -27 0 -29 -17 -7 -48 8 -12 10 -22 5 -22 -6 0 -11 5 -11 12 0 6 -3
8 -6 5 -4 -3 -15 -2 -25 3 -15 9 -18 5 -21 -27 -4 -47 -30 -52 -39 -8 -6 27
-7 26 -8 -12 0 -23 -6 -45 -11 -48 -16 -10 -2 -25 16 -18 9 3 20 0 25 -8 15
-24 10 -30 -18 -23 -22 6 -25 4 -20 -10 4 -10 -2 -25 -15 -38 -19 -19 -20 -22
-5 -33 19 -14 22 -41 6 -50 -13 -8 -2 -64 16 -85 8 -8 17 -27 20 -42 5 -19 14
-28 27 -28 10 0 17 -4 13 -9 -10 -17 13 -22 28 -6 9 8 20 15 26 15 6 0 11 5
11 10 0 6 9 10 19 10 11 0 21 5 23 12 3 8 11 7 27 -4 15 -10 19 -18 11 -23 -8
-5 -8 -10 0 -20 8 -10 3 -18 -23 -34 -18 -11 -57 -46 -86 -77 l-52 -56 -52 5
c-29 2 -62 8 -75 12 -19 6 -21 5 -16 -11 12 -32 66 -83 95 -89 64 -14 36 -55
-38 -55 -24 0 -43 -4 -43 -8 0 -16 49 -54 87 -67 51 -17 51 -44 0 -69 -34 -16
-37 -20 -24 -33 8 -8 32 -21 53 -28 21 -8 38 -19 36 -26 -1 -6 5 -17 15 -24
11 -8 24 -43 34 -92 18 -84 53 -184 77 -221 24 -37 26 -16 3 40 -44 111 -61
203 -56 312 11 252 108 404 287 452 56 15 168 19 168 7 0 -5 -20 -21 -45 -36
-126 -80 -207 -253 -192 -411 15 -159 117 -297 257 -349 36 -13 41 -14 26 -2
-11 8 -23 15 -28 15 -4 0 -16 8 -26 18 -10 9 -27 22 -38 28 -10 7 -16 15 -11
20 4 4 18 -3 31 -15 14 -13 29 -20 35 -16 18 11 12 25 -10 25 -11 0 -17 5 -14
10 3 6 1 10 -4 10 -6 0 -11 5 -11 10 0 6 7 10 15 10 18 0 19 12 3 28 -20 20 0
26 27 8 28 -19 33 -36 9 -36 -14 0 -14 -3 -4 -15 15 -18 31 -20 27 -2 -1 9 18
11 80 8 105 -4 170 17 231 76 42 40 44 43 37 85 -10 56 -51 197 -60 206 -4 4
-10 2 -12 -5 -2 -7 -13 -23 -24 -37 -27 -35 -86 -36 -117 -3 -51 54 -12 147
63 147 19 0 35 5 35 11 0 11 -48 103 -128 244 -62 108 -175 249 -277 345 -8 8
-28 28 -44 44 -16 15 -39 33 -52 40 -30 15 -37 46 -13 63 15 11 15 13 2 13 -9
0 -18 -7 -22 -15 -10 -26 -26 -16 -26 15 0 31 -2 32 -63 23z"/>
<path d="M8108 9723 c7 -3 16 -2 19 1 4 3 -2 6 -13 5 -11 0 -14 -3 -6 -6z"/>
<path d="M5728 9696 c-118 -34 -217 -120 -271 -234 -26 -56 -32 -82 -35 -158
-5 -100 10 -163 55 -240 50 -88 169 -175 258 -190 26 -5 28 -4 13 8 -12 11
-14 18 -6 33 8 14 7 21 -7 31 -9 7 -14 18 -10 24 11 18 -15 29 -50 24 -22 -4
-26 -3 -16 4 12 9 12 13 2 26 -18 22 -5 20 29 -4 35 -25 143 -40 212 -29 79
13 178 81 208 144 8 17 19 33 24 37 11 7 46 -12 46 -26 0 -5 8 -15 18 -22 16
-12 15 -17 -17 -74 -28 -52 -30 -60 -14 -51 29 15 91 145 105 218 32 175 -69
366 -239 450 -68 34 -84 37 -167 40 -54 1 -110 -3 -138 -11z m240 -252 c53
-37 48 -120 -10 -150 -100 -52 -182 97 -83 154 28 16 67 15 93 -4z"/>
<path d="M6970 9644 c0 -8 5 -12 10 -9 6 4 8 11 5 16 -9 14 -15 11 -15 -7z"/>
<path d="M6860 9489 c0 -24 23 -21 28 4 2 10 -3 17 -12 17 -10 0 -16 -9 -16
-21z"/>
<path d="M7985 9450 c3 -5 8 -10 11 -10 2 0 4 5 4 10 0 6 -5 10 -11 10 -5 0
-7 -4 -4 -10z"/>
<path d="M7080 9409 c0 -5 5 -7 10 -4 6 3 10 8 10 11 0 2 -4 4 -10 4 -5 0 -10
-5 -10 -11z"/>
<path d="M7898 9403 c-12 -3 -19 -15 -19 -34 -1 -16 -2 -34 -3 -41 -1 -6 5
-13 13 -16 10 -3 12 3 6 27 -5 23 -3 33 8 37 9 3 18 12 21 20 6 14 4 15 -26 7z"/>
<path d="M7100 9351 c0 -11 5 -23 10 -26 6 -3 10 3 10 14 0 11 -4 23 -10 26
-5 3 -10 -3 -10 -14z"/>
<path d="M7840 9289 c0 -24 23 -21 28 4 2 10 -3 17 -12 17 -10 0 -16 -9 -16
-21z"/>
<path d="M7110 9295 c0 -3 4 -13 9 -23 6 -9 13 -30 17 -47 5 -21 8 -25 11 -12
6 22 -15 87 -28 87 -5 0 -9 -2 -9 -5z"/>
<path d="M3356 9263 c-11 -11 -6 -23 9 -23 8 0 15 4 15 9 0 13 -16 22 -24 14z"/>
<path d="M7160 9135 c0 -5 5 -17 10 -25 5 -8 10 -10 10 -5 0 6 -5 17 -10 25
-5 8 -10 11 -10 5z"/>
<path d="M7186 9042 c-4 -6 0 -24 8 -39 13 -23 15 -24 15 -8 -1 32 -14 61 -23
47z"/>
<path d="M7210 8935 c0 -11 9 -74 19 -140 40 -242 22 -532 -37 -593 -7 -8 -10
-18 -6 -23 10 -16 -7 -69 -22 -69 -8 0 -14 -4 -14 -9 0 -5 -9 -7 -20 -4 -11 3
-20 8 -20 12 0 4 -16 25 -35 47 -42 47 -46 94 -14 148 22 38 19 56 -11 56 -10
0 -22 5 -25 10 -3 6 1 10 9 10 9 0 16 5 16 10 0 6 -7 10 -16 10 -8 0 -12 5 -9
10 3 6 -5 10 -19 10 -13 0 -36 4 -50 10 -15 5 -36 6 -48 1 -22 -8 -22 -9 10
-25 17 -9 32 -21 32 -26 0 -12 -36 -31 -43 -23 -6 6 -86 14 -141 14 -37 0 -79
-28 -72 -47 4 -11 1 -14 -12 -12 -9 2 -17 10 -17 18 0 8 -10 16 -22 18 -16 2
-23 -2 -23 -12 0 -9 7 -16 16 -16 8 0 12 -5 9 -10 -4 -7 -13 -6 -27 1 -15 8
-30 7 -64 -6 -50 -19 -60 -30 -44 -50 9 -10 5 -14 -18 -20 -16 -3 -33 -5 -38
-4 -22 4 -26 -2 -10 -14 17 -12 17 -14 3 -20 -9 -3 -19 -2 -22 2 -8 14 -44 0
-50 -19 -3 -11 -15 -20 -27 -22 -36 -5 -46 -34 -20 -61 27 -29 28 -40 2 -32
-11 4 -20 2 -20 -4 0 -6 6 -11 14 -11 8 0 24 -8 37 -19 l23 -18 -32 -17 c-25
-13 -32 -22 -31 -44 l2 -27 4 28 c6 36 23 35 23 -3 0 -16 -4 -30 -10 -30 -5 0
-10 -8 -10 -17 0 -15 2 -16 10 -3 9 13 13 11 29 -9 20 -27 18 -44 -9 -76 -21
-24 -50 -78 -67 -125 -13 -36 -6 -49 27 -50 11 -1 8 -7 -9 -21 -18 -15 -24
-31 -26 -62 0 -24 -9 -54 -18 -67 -9 -14 -17 -37 -17 -51 0 -19 -13 -39 -42
-66 -23 -21 -51 -48 -63 -61 -14 -13 -29 -20 -39 -16 -12 5 -16 0 -16 -19 0
-17 -8 -28 -28 -36 -15 -6 -32 -22 -37 -34 -7 -14 -17 -21 -31 -19 -11 1 -28
-6 -38 -17 -15 -17 -26 -19 -61 -14 -37 5 -43 3 -42 -12 2 -16 -9 -18 -86 -21
-52 -2 -95 -8 -104 -15 -8 -7 -24 -15 -36 -16 -12 -2 -24 -8 -27 -13 -7 -11
-120 -1 -120 11 0 5 -6 9 -14 9 -8 0 -16 6 -19 14 -4 10 4 17 25 21 18 4 32
15 35 26 4 16 8 17 20 8 19 -16 70 -21 79 -8 3 6 -3 17 -15 25 -13 10 -21 26
-21 45 0 25 4 30 23 29 51 -5 77 0 77 15 0 8 9 19 20 25 11 6 20 21 20 33 0
13 4 27 8 33 14 17 33 84 27 94 -3 6 1 13 9 16 9 3 16 12 16 20 0 9 12 14 36
14 19 0 42 6 50 14 20 20 29 98 15 125 -10 18 -9 21 9 21 12 0 21 7 22 18 0 9
2 22 3 27 2 6 3 21 4 35 l1 25 20 -30 c11 -16 20 -38 20 -47 0 -10 4 -18 9
-18 5 0 12 42 15 93 7 82 31 194 46 207 9 8 40 115 40 136 0 11 -19 38 -42 61
-56 54 -78 47 -97 -28 -36 -142 -130 -329 -226 -449 -84 -104 -240 -250 -268
-250 -4 0 -23 -11 -41 -25 -18 -14 -38 -25 -43 -25 -6 0 -16 -7 -23 -15 -17
-20 -37 -19 -62 5 -12 10 -24 17 -28 15 -4 -3 -13 9 -20 25 -12 29 -14 30 -81
30 -38 0 -69 -4 -69 -9 0 -5 -17 -12 -37 -17 -21 -4 -40 -8 -43 -9 -44 -14
-61 -15 -80 -5 -17 9 -26 8 -46 -5 -29 -19 -31 -35 -5 -35 42 0 28 -18 -17
-23 -26 -3 -48 -1 -50 4 -6 15 -32 10 -32 -6 0 -9 -8 -24 -17 -34 -21 -22 -83
-38 -83 -22 0 6 -10 11 -22 11 -23 -1 -23 -1 -3 -16 19 -14 16 -15 -30 -9 -27
4 -59 9 -70 11 -14 3 -11 0 7 -11 16 -9 83 -29 150 -46 67 -17 127 -37 133
-44 17 -21 65 -48 65 -36 0 5 6 9 13 7 6 -3 24 -7 39 -10 17 -4 29 -16 36 -35
7 -19 19 -31 39 -35 34 -8 133 -56 151 -73 7 -7 18 -13 23 -13 5 0 9 -7 9 -15
0 -8 -9 -15 -19 -15 -11 0 -41 -10 -68 -22 -41 -18 -66 -21 -168 -21 l-120 1
68 -12 c71 -11 74 -18 20 -41 -32 -14 -56 -42 -68 -84 -6 -20 -5 -22 11 -13
12 7 32 5 67 -5 27 -8 94 -23 150 -34 55 -10 104 -22 109 -27 4 -4 -1 -53 -11
-110 l-18 -102 47 0 c26 0 68 -3 94 -6 37 -6 45 -4 42 7 -3 8 2 50 12 94 l17
80 75 0 c41 0 163 -6 270 -14 343 -24 887 9 913 55 4 7 14 11 22 8 9 -4 15 0
15 10 0 9 5 16 10 16 6 0 10 -7 10 -15 0 -13 40 -15 304 -15 324 0 316 -1 316
47 0 14 -37 15 -320 11 -303 -3 -320 -5 -336 -23 -15 -20 -15 -20 -11 3 6 26
-20 31 -30 5 -13 -33 -42 -54 -68 -47 -21 5 -24 11 -21 50 1 24 4 45 7 46 2 2
13 8 23 14 11 6 21 17 24 25 2 8 -3 6 -12 -5 -13 -17 -16 -17 -16 -4 0 9 12
26 26 37 14 11 24 26 22 33 -3 7 5 23 18 37 12 13 25 37 28 53 3 16 10 27 15
23 6 -3 8 -12 4 -20 -5 -13 37 -15 328 -13 l334 3 3 28 3 28 -330 -3 c-182 -2
-331 0 -331 5 0 4 6 7 14 7 8 0 17 11 20 24 3 14 16 28 29 32 12 5 153 8 312
9 l290 0 3 28 3 27 -281 0 -282 0 32 40 31 40 252 2 252 3 0 25 0 25 -222 5
-223 5 28 33 28 32 197 0 197 0 0 30 0 30 -166 0 -166 0 32 40 32 40 139 0
139 0 0 30 0 30 -121 0 -121 0 21 33 20 32 101 3 100 3 0 29 0 30 -81 0 -81 0
21 33 c18 29 25 32 83 37 l62 5 -1 70 c-4 142 -2 180 7 189 15 15 12 26 -5 26
-9 0 -15 9 -15 21 0 15 5 19 15 15 9 -3 15 0 15 9 0 8 -7 15 -15 15 -18 0 -21
45 -4 56 8 5 8 8 0 14 -8 4 -14 51 -17 126 -6 158 -8 181 -16 190 -5 4 -8 26
-8 48 0 45 -23 164 -46 237 -7 26 -14 60 -14 76 0 16 -7 38 -15 49 -14 19 -14
19 -15 -1z m-152 -612 c3 -10 -13 -13 -60 -12 -34 1 -52 4 -38 6 14 3 29 9 35
14 13 13 57 7 63 -8z m272 -428 c0 -33 -2 -35 -35 -35 l-34 0 20 35 c12 19 27
35 35 35 9 0 14 -12 14 -35z m-2120 -509 c0 -8 9 -18 21 -21 27 -9 14 -20 -31
-29 -32 -6 -33 -5 -15 8 18 13 18 15 3 21 -9 4 -14 13 -11 21 7 18 33 18 33 0z
m290 -326 c0 -5 -7 -10 -15 -10 -8 0 -15 5 -15 10 0 6 7 10 15 10 8 0 15 -4
15 -10z m-270 -50 c0 -13 -30 -13 -50 0 -11 7 -7 10 18 10 17 0 32 -4 32 -10z
m-50 -481 c0 -11 -4 -18 -10 -14 -5 3 -7 12 -3 20 7 21 13 19 13 -6z"/>
<path d="M2720 8870 c0 -5 5 -10 10 -10 6 0 10 5 10 10 0 6 -4 10 -10 10 -5 0
-10 -4 -10 -10z"/>
<path d="M6955 8481 c-13 -12 -1 -19 35 -19 22 0 40 3 40 8 0 8 -68 19 -75 11z"/>
<path d="M6840 8424 c0 -10 -6 -14 -15 -11 -8 4 -17 2 -20 -3 -4 -6 7 -10 22
-10 16 0 34 -5 41 -12 9 -9 12 -9 12 0 0 7 -5 12 -11 12 -8 0 -9 4 0 13 12 15
5 27 -16 27 -7 0 -13 -7 -13 -16z"/>
<path d="M4554 8345 c-54 -13 -175 -68 -134 -61 14 3 52 12 84 20 72 18 136 5
136 -28 0 -40 -43 -85 -103 -107 -31 -12 -60 -25 -62 -30 -3 -4 -18 -3 -34 2
-15 6 -32 9 -37 8 -32 -6 -64 21 -64 54 0 11 10 31 22 44 21 22 21 24 3 17
-35 -12 -77 -58 -101 -109 -71 -150 23 -361 190 -424 78 -29 180 -29 242 0 67
32 149 112 177 172 51 108 63 256 26 317 -73 122 -187 164 -345 125z"/>
<path d="M7050 8250 c0 -5 5 -10 10 -10 6 0 10 5 10 10 0 6 -4 10 -10 10 -5 0
-10 -4 -10 -10z"/>
<path d="M6269 8199 c-9 -17 -8 -23 2 -30 21 -13 39 -11 39 5 0 8 6 17 13 19
9 4 8 8 -3 16 -23 16 -38 13 -51 -10z"/>
<path d="M4002 7689 c-19 -21 -44 -39 -54 -39 -22 0 -23 -13 -3 -30 19 -16 19
-27 -1 -47 -11 -11 -12 -18 -4 -23 6 -4 10 -12 8 -19 -4 -18 26 -36 46 -28 22
9 20 24 -4 30 -16 4 -18 9 -11 29 4 12 14 23 22 23 8 0 24 6 37 13 12 7 26 10
31 8 5 -3 11 1 15 9 6 17 33 20 38 4 5 -15 38 0 38 18 0 21 -62 81 -68 65 -2
-6 -11 -12 -19 -12 -12 0 -13 3 -4 14 9 11 7 15 -10 19 -16 4 -30 -4 -57 -34z"/>
<path d="M5918 7594 c4 -94 23 -87 30 11 3 58 2 65 -15 65 -16 0 -18 -8 -15
-76z"/>
<path d="M5181 7504 c0 -11 3 -14 6 -6 3 7 2 16 -1 19 -3 4 -6 -2 -5 -13z"/>
<path d="M5901 7204 c-20 -23 -5 -29 31 -11 18 9 31 17 28 18 -37 7 -47 5 -59
-7z"/>
<path d="M4137 7133 c-4 -3 -7 -11 -7 -17 0 -6 5 -5 12 2 6 6 9 14 7 17 -3 3
-9 2 -12 -2z"/>
<path d="M4410 6885 l0 -25 103 0 c91 0 106 3 142 25 l40 24 -142 1 -143 0 0
-25z"/>
<path d="M6595 6889 c-4 -11 -5 -22 -3 -24 2 -3 161 -5 353 -5 l350 -2 3 26 3
26 -350 0 c-345 0 -350 0 -356 -21z"/>
<path d="M4410 6745 c0 -14 4 -25 8 -25 5 0 19 11 32 25 l23 25 -31 0 c-27 0
-32 -4 -32 -25z"/>
<path d="M6729 6618 l8 -23 269 0 269 0 3 23 3 22 -280 0 -280 0 8 -22z"/>
<path d="M6797 6501 c-35 -6 -37 -7 -24 -25 12 -17 34 -19 250 -24 211 -4 237
-3 237 11 0 8 3 22 6 31 6 14 -17 16 -212 15 -121 -1 -236 -5 -257 -8z"/>
<path d="M5445 6374 c7 -25 16 -49 19 -52 4 -3 30 -6 59 -8 28 -1 61 -4 71 -5
35 -7 26 16 -15 39 -22 13 -44 34 -49 48 -8 20 -16 24 -54 24 l-45 0 14 -46z"/>
<path d="M4704 6345 c-14 -31 -24 -58 -22 -61 3 -2 21 2 40 11 24 9 39 24 46
44 9 26 8 32 -14 46 -25 16 -25 16 -50 -40z"/>
<path d="M4942 6381 c-40 -10 -77 -22 -81 -27 -4 -5 -16 -31 -25 -57 -11 -29
-32 -59 -52 -75 -25 -20 -34 -35 -34 -57 0 -56 38 -260 60 -325 55 -158 153
-284 267 -345 l52 -28 47 22 c51 25 117 88 164 159 29 44 34 74 5 36 -11 -15
-14 -16 -15 -3 0 20 19 39 34 33 13 -5 56 80 56 109 0 9 5 19 10 22 17 10 12
77 -7 90 -15 12 -15 13 3 19 25 8 49 67 32 77 -8 5 -6 12 5 24 10 10 17 32 17
56 0 37 -2 39 -29 39 -29 0 -55 19 -29 21 7 1 24 2 38 2 34 3 37 30 5 47 -34
18 -84 82 -94 117 -10 39 -68 54 -226 59 -104 3 -145 0 -203 -15z m152 -56
c-3 -8 -12 -11 -20 -8 -15 5 -18 16 -8 26 11 10 33 -4 28 -18z m96 4 c0 -5 -4
-9 -10 -9 -5 0 -10 7 -10 16 0 8 5 12 10 9 6 -3 10 -10 10 -16z m97 5 c-3 -3
-12 -4 -19 -1 -8 3 -5 6 6 6 11 1 17 -2 13 -5z m-337 -62 c-7 -3 -16 2 -21 9
-16 25 -9 32 12 13 13 -12 16 -20 9 -22z m290 23 c0 -8 -4 -15 -10 -15 -5 0
-7 7 -4 15 4 8 8 15 10 15 2 0 4 -7 4 -15z m-90 -15 c0 -5 -6 -10 -14 -10 -8
0 -18 5 -21 10 -3 6 3 10 14 10 12 0 21 -4 21 -10z m-110 -21 c0 -5 -4 -9 -10
-9 -5 0 -10 7 -10 16 0 8 5 12 10 9 6 -3 10 -10 10 -16z m300 6 c0 -8 -4 -15
-10 -15 -5 0 -10 7 -10 15 0 8 5 15 10 15 6 0 10 -7 10 -15z m-410 -15 c0 -5
-5 -10 -11 -10 -5 0 -7 5 -4 10 3 6 8 10 11 10 2 0 4 -4 4 -10z m81 -15 c5 4
9 2 9 -4 0 -6 -12 -13 -27 -17 -16 -3 -34 -7 -40 -10 -18 -5 -16 -34 2 -34 8
0 15 -4 15 -9 0 -12 39 -25 48 -17 3 4 -4 13 -16 22 -28 19 -29 38 -1 22 17
-11 22 -10 29 3 20 34 46 57 73 63 36 8 77 -33 77 -77 0 -23 3 -28 17 -23 11
4 28 -4 50 -26 l33 -32 1 30 c0 16 3 23 6 17 3 -9 30 -13 83 -13 61 0 79 -3
84 -15 6 -16 -13 -55 -26 -55 -5 0 -8 -11 -8 -24 0 -13 -7 -29 -16 -36 -8 -8
-22 -29 -29 -48 -17 -40 -41 -38 -38 4 4 38 -31 134 -48 134 -4 0 0 -14 9 -32
8 -18 18 -65 22 -105 3 -40 11 -78 18 -85 20 -20 14 -75 -10 -98 -24 -22 -49
-25 -78 -10 -13 7 -29 5 -54 -5 -56 -24 -148 -15 -167 16 -4 6 -20 4 -42 -7
-35 -17 -39 -17 -72 -1 -23 11 -35 24 -35 37 0 11 -5 20 -11 20 -6 0 -3 7 5
16 9 8 16 21 16 28 0 8 7 19 15 26 13 11 13 15 3 21 -21 14 -27 10 -21 -11 4
-14 0 -20 -10 -20 -13 0 -14 6 -6 32 13 46 11 68 -5 68 -19 0 -68 96 -64 124
2 17 9 20 36 18 34 -4 41 8 18 27 -11 9 -16 9 -21 1 -5 -8 -11 -8 -17 -2 -7 7
-5 16 6 27 14 15 17 15 22 1 3 -9 12 -16 19 -16 7 0 15 -8 18 -19 3 -14 14
-19 52 -19 41 -1 45 1 34 14 -7 8 -19 13 -28 12 -9 -2 -21 3 -27 11 -9 11 -4
22 22 48 19 19 34 38 34 44 0 6 7 3 16 -5 8 -9 20 -14 25 -11z m302 -17 c-2
-5 -8 -6 -13 -3 -5 3 -11 1 -15 -5 -10 -16 -24 -2 -18 19 4 15 8 17 28 7 13
-6 21 -14 18 -18z m-417 6 c-3 -9 -6 -20 -6 -26 0 -7 -5 -6 -14 2 -18 14 -10
40 11 40 10 0 13 -6 9 -16z m504 1 c0 -10 -10 -15 -27 -15 -26 0 -26 1 -7 15
25 19 34 19 34 0z m-134 -72 c-9 -9 -36 18 -36 35 0 12 5 11 21 -7 12 -12 18
-25 15 -28z m58 18 c3 -5 15 -7 26 -4 11 3 20 1 20 -5 0 -19 -39 -20 -56 -1
-9 10 -12 19 -6 19 6 0 13 -4 16 -9z m-470 -232 c-8 -13 -24 -1 -24 18 0 13 3
13 15 3 8 -7 12 -16 9 -21z m556 -39 c11 -7 12 -12 3 -21 -6 -6 -9 -18 -6 -25
8 -22 -3 -16 -21 11 -24 36 -9 56 24 35z m-456 -179 c19 -7 19 -8 -2 -13 -12
-4 -26 0 -33 8 -13 16 2 18 35 5z m116 -7 c0 -2 -9 -4 -21 -4 -11 0 -18 4 -14
10 5 8 35 3 35 -6z m195 7 c6 -11 -33 -26 -43 -16 -4 3 0 10 8 15 19 12 27 12
35 1z m-157 -47 c12 -9 11 -12 -3 -24 -22 -18 -35 -2 -28 35 4 18 8 24 11 15
3 -8 12 -20 20 -26z m42 22 c0 -3 -4 -8 -10 -11 -5 -3 -10 -1 -10 4 0 6 5 11
10 11 6 0 10 -2 10 -4z m-149 -52 c-10 -17 -10 -17 -11 5 0 20 -2 21 -15 11
-18 -15 -20 -5 -2 15 19 21 43 -6 28 -31z m203 27 c4 -5 3 -17 0 -26 -5 -13
-8 -14 -15 -3 -5 7 -9 19 -9 26 0 14 16 16 24 3z m116 -10 c0 -3 -6 -14 -13
-23 -12 -15 -14 -15 -24 1 -8 13 -8 22 -1 29 10 10 38 6 38 -7z m-146 -53 c7
-5 5 -8 -6 -8 -9 0 -18 -4 -20 -9 -1 -4 -12 1 -23 12 -16 16 -16 19 -3 14 11
-4 18 1 23 16 7 21 7 21 12 2 3 -11 10 -23 17 -27z m93 13 c10 -16 6 -23 -23
-52 -23 -22 -45 -34 -67 -35 -31 -2 -31 -2 -11 15 12 9 23 23 27 31 4 12 6 11
6 -2 1 -10 5 -18 11 -18 13 0 35 42 31 63 -3 23 11 22 26 -2z m-208 -5 c9 -10
8 -16 -4 -26 -12 -10 -18 -9 -31 5 -15 14 -15 18 -3 26 19 12 25 11 38 -5z
m60 -72 c-14 -16 -19 -17 -39 -4 -12 8 -13 11 -1 19 7 5 22 6 32 4 15 -4 17
-8 8 -19z m41 -34 c0 -5 -7 -10 -15 -10 -8 0 -15 5 -15 10 0 6 7 10 15 10 8 0
15 -4 15 -10z"/>
<path d="M5170 6077 c0 -13 -5 -28 -12 -35 -7 -7 -8 -12 -2 -12 6 0 16 -11 22
-25 30 -65 -3 -135 -63 -135 -24 0 -37 -7 -50 -26 -9 -14 -15 -28 -12 -30 8
-8 115 -9 123 -2 4 4 1 14 -6 23 -10 13 -9 23 11 61 21 39 28 45 52 41 25 -3
27 -1 27 30 0 39 -23 89 -54 115 -28 23 -36 22 -36 -5z"/>
<path d="M5024 6066 c-23 -25 -34 -56 -34 -91 0 -37 16 -44 30 -14 4 8 15 29
24 47 24 46 8 91 -20 58z"/>
<path d="M4820 6364 c0 -8 5 -12 10 -9 6 3 10 10 10 16 0 5 -4 9 -10 9 -5 0
-10 -7 -10 -16z"/>
<path d="M4706 5761 c-3 -5 1 -12 10 -15 20 -8 29 -1 19 13 -8 13 -22 14 -29
2z"/>
<path d="M4695 5670 c-7 -12 2 -30 16 -30 12 0 12 27 0 35 -5 3 -12 1 -16 -5z"/>
<path d="M4735 5620 c-3 -5 -1 -10 4 -10 6 0 11 5 11 10 0 6 -2 10 -4 10 -3 0
-8 -4 -11 -10z"/>
<path d="M4790 5535 c0 -8 7 -15 15 -15 9 0 12 6 9 15 -4 8 -10 15 -15 15 -5
0 -9 -7 -9 -15z"/>
</g>
</svg>
